<!DOCTYPE svg PUBLIC "-//W3C//DTD SVG 20010904//EN" "http://www.w3.org/TR/2001/REC-SVG-20010904/DTD/svg10.dtd">
<svg version="1.0" xmlns="http://www.w3.org/2000/svg" width="61px" height="50px" viewBox="0 0 610 500" preserveAspectRatio="xMidYMid meet">
<g id="layer101" fill="#368eb6" stroke="none">
 <path d="M120 414 l-40 -36 0 -133 c0 -121 2 -135 22 -160 34 -44 75 -55 203 -55 126 0 157 9 194 56 19 24 21 40 21 159 l0 133 -40 36 -40 36 -140 0 -140 0 -40 -36z"/>
 </g>
<g id="layer102" fill="#feffff" stroke="none">
 <path d="M188 373 c8 -3 12 -33 12 -101 -1 -97 -1 -97 -20 -74 -11 14 -21 18 -25 12 -18 -29 92 -90 164 -90 37 0 49 6 82 39 47 47 51 85 13 130 -32 39 -92 56 -146 43 -36 -9 -38 -9 -38 13 0 13 6 26 13 28 6 3 -6 5 -28 5 -22 0 -34 -2 -27 -5z m189 -85 c17 -16 23 -32 23 -64 0 -70 -58 -101 -139 -73 -31 11 -31 12 -31 79 0 77 1 78 74 79 38 1 55 -4 73 -21z"/>
 </g>

</svg>