<!DOCTYPE svg PUBLIC "-//W3C//DTD SVG 20010904//EN" "http://www.w3.org/TR/2001/REC-SVG-20010904/DTD/svg10.dtd">
<svg version="1.0" xmlns="http://www.w3.org/2000/svg" width="61px" height="50px" viewBox="0 0 610 500" preserveAspectRatio="xMidYMid meet">
<g id="layer101" fill="#ffffff" stroke="none">
 <path d="M118 431 c-88 -23 -95 -31 -24 -31 33 0 70 -7 89 -16 l32 -17 -25 -9 c-14 -5 -38 -21 -53 -36 l-28 -27 28 -6 28 -6 -26 -10 c-27 -12 -89 -77 -89 -94 0 -6 10 -3 22 5 12 9 34 16 48 16 24 0 24 0 -7 -20 -47 -28 -68 -74 -52 -112 l12 -29 41 39 c47 46 114 82 151 82 20 0 25 -5 25 -26 0 -16 13 -39 34 -60 39 -39 80 -45 127 -17 24 14 34 15 60 6 l31 -12 -16 25 c-18 27 -15 29 16 13 l21 -12 -20 27 c-12 15 -24 46 -28 69 -10 57 -60 166 -93 200 -71 75 -168 93 -304 58z"/>
 </g>

</svg>