<!DOCTYPE svg PUBLIC "-//W3C//DTD SVG 20010904//EN" "http://www.w3.org/TR/2001/REC-SVG-20010904/DTD/svg10.dtd">
<svg version="1.0" xmlns="http://www.w3.org/2000/svg" width="64px" height="64px" viewBox="0 0 640 640" preserveAspectRatio="xMidYMid meet">
<g id="layer101" fill="#3f91b9" stroke="none">
<path d="M260 252 c0 -38 5 -53 23 -70 30 -28 48 -28 75 1 16 17 22 36 22 70 l0 47 -60 0 -60 0 0 -48z"/>
</g>
<g id="layer102" fill="#8ebead" stroke="none">
<path d="M160 427 c0 -43 5 -58 23 -75 30 -28 48 -28 75 1 17 18 22 36 22 75 l0 52 -60 0 -60 0 0 -53z"/>
</g>
<g id="layer103" fill="#9da0d1" stroke="none">
<path d="M360 427 c0 -43 5 -58 23 -75 30 -28 48 -28 75 1 17 18 22 36 22 75 l0 52 -60 0 -60 0 0 -53z"/>
</g>


</svg>