<!DOCTYPE svg PUBLIC "-//W3C//DTD SVG 20010904//EN" "http://www.w3.org/TR/2001/REC-SVG-20010904/DTD/svg10.dtd">
<svg version="1.0" xmlns="http://www.w3.org/2000/svg" width="64px" height="64px" viewBox="0 0 640 640" preserveAspectRatio="xMidYMid meet">
<g id="layer101" fill="#565656" stroke="none">
 <path d="M177 379 c-10 -11 -23 -32 -30 -47 -11 -27 -11 -27 -15 16 -2 28 -8 42 -18 42 -11 0 -14 -16 -14 -70 0 -68 1 -70 25 -70 14 0 25 6 25 13 0 6 14 35 31 62 l30 50 -6 -62 c-5 -53 -4 -63 10 -63 22 0 22 135 -1 144 -19 7 -15 9 -37 -15z"/>
 <path d="M474 378 c-13 -46 -26 -51 -40 -19 -13 32 -43 42 -45 16 -4 -89 -1 -120 12 -120 10 0 13 11 11 40 l-3 40 21 -24 c11 -13 20 -29 20 -37 0 -8 5 -14 10 -14 6 0 10 8 10 19 0 10 6 33 13 50 l14 32 12 -56 c16 -72 36 -74 27 -2 -7 52 -28 97 -46 97 -5 0 -12 -10 -16 -22z"/>
 <path d="M268 378 c0 -7 -2 -39 -2 -70 l-1 -58 43 0 c31 0 42 4 42 15 0 10 -10 15 -30 15 -20 0 -30 5 -30 15 0 9 9 15 25 15 18 0 25 5 25 19 0 14 -6 17 -25 13 -18 -3 -25 0 -25 12 0 11 9 16 30 16 17 0 30 5 30 10 0 15 -80 13 -82 -2z"/>
 </g>

</svg>