<!DOCTYPE svg PUBLIC "-//W3C//DTD SVG 20010904//EN" "http://www.w3.org/TR/2001/REC-SVG-20010904/DTD/svg10.dtd">
<svg version="1.0" xmlns="http://www.w3.org/2000/svg" width="533px" height="250px" viewBox="0 0 5330 2500" preserveAspectRatio="xMidYMid meet">
<g id="layer101" fill="#358cb6" stroke="none">
 <path d="M1145 2236 c-79 -36 -95 -87 -95 -298 l0 -158 -117 -1 c-332 -3 -559 -14 -587 -29 -47 -24 -71 -65 -71 -118 0 -40 12 -66 69 -167 407 -708 615 -1062 639 -1086 63 -63 156 -63 219 1 32 32 38 44 38 81 0 39 -25 87 -213 414 -117 204 -245 424 -284 491 l-71 121 82 7 c44 3 129 6 189 6 l107 0 0 -160 c0 -181 6 -207 64 -258 31 -27 45 -32 84 -32 56 1 108 25 136 63 19 26 21 44 24 208 l3 179 75 0 c127 0 214 62 214 151 0 79 -93 139 -217 139 l-71 0 -4 179 c-3 195 -6 207 -70 254 -33 25 -104 31 -143 13z"/>
 <path d="M4545 2236 c-79 -36 -95 -87 -95 -298 l0 -158 -117 -1 c-332 -3 -559 -14 -587 -29 -47 -24 -71 -65 -71 -118 0 -40 12 -66 69 -167 407 -708 615 -1062 639 -1086 63 -63 156 -63 219 1 32 32 38 44 38 81 0 39 -25 87 -213 414 -117 204 -245 424 -284 491 l-71 121 82 7 c44 3 129 6 189 6 l107 0 0 -160 c0 -181 6 -207 64 -258 31 -27 45 -32 84 -32 56 1 108 25 136 63 19 26 21 44 24 208 l3 179 75 0 c127 0 214 62 214 151 0 79 -93 139 -217 139 l-71 0 -4 179 c-3 195 -6 207 -70 254 -33 25 -104 31 -143 13z"/>
 <path d="M2446 2229 c-45 -11 -155 -65 -233 -115 -117 -75 -234 -296 -279 -531 -20 -104 -23 -326 -5 -451 57 -396 264 -706 537 -803 83 -30 274 -38 363 -15 73 19 197 89 270 153 88 77 166 217 214 383 39 134 50 249 44 437 -6 191 -20 247 -106 428 -71 148 -132 237 -230 333 -106 105 -171 145 -275 172 -85 21 -228 26 -300 9z m197 -279 c167 -52 295 -195 367 -408 55 -166 62 -356 20 -572 -24 -128 -64 -214 -131 -285 -70 -75 -137 -106 -224 -106 -214 0 -381 216 -440 570 -24 141 -17 384 14 489 41 139 106 238 184 279 18 9 57 24 87 34 30 9 56 18 56 18 1 1 31 -8 67 -19z"/>
 </g>

</svg>