<!DOCTYPE svg PUBLIC "-//W3C//DTD SVG 20010904//EN" "http://www.w3.org/TR/2001/REC-SVG-20010904/DTD/svg10.dtd">
<svg version="1.0" xmlns="http://www.w3.org/2000/svg" width="30px" height="45px" viewBox="0 0 300 450" preserveAspectRatio="xMidYMid meet">
<g id="layer101" fill="#3e90b9" stroke="none">
 <path d="M108 380 c-43 -27 -78 -53 -78 -58 0 -5 14 -15 30 -22 43 -18 44 -24 6 -62 -42 -42 -53 -91 -32 -141 41 -100 191 -100 232 0 20 47 11 94 -26 137 -28 31 -30 39 -30 115 0 58 -4 81 -12 81 -7 0 -48 -22 -90 -50z"/>
 </g>
<g id="layer102" fill="#8ebfad" stroke="none">
 <path d="M108 380 c-68 -43 -95 -70 -70 -70 4 0 44 -22 90 -49 l82 -49 0 109 c0 81 -3 109 -12 109 -7 0 -48 -22 -90 -50z m92 -125 c0 -19 -9 -19 -34 0 -19 14 -19 15 7 15 17 0 27 -5 27 -15z"/>
 </g>

</svg>