<!DOCTYPE svg PUBLIC "-//W3C//DTD SVG 20010904//EN" "http://www.w3.org/TR/2001/REC-SVG-20010904/DTD/svg10.dtd">
<svg version="1.0" xmlns="http://www.w3.org/2000/svg" width="17px" height="131px" viewBox="0 0 170 1310" preserveAspectRatio="xMidYMid meet">
<g id="layer101" fill="#3e90b9" stroke="none">
 <path d="M26 1269 l-26 -20 0 -589 0 -589 26 -20 c34 -27 84 -27 118 0 l26 20 0 589 0 589 -26 20 c-15 12 -41 21 -59 21 -18 0 -44 -9 -59 -21z"/>
 </g>
<g id="layer102" fill="#8ebfad" stroke="none">
 <path d="M110 660 c0 -502 3 -630 12 -624 51 29 48 -9 48 624 0 633 3 595 -47 624 -10 6 -13 -122 -13 -624z"/>
 </g>

</svg>