<!DOCTYPE svg PUBLIC "-//W3C//DTD SVG 20010904//EN" "http://www.w3.org/TR/2001/REC-SVG-20010904/DTD/svg10.dtd">
<svg version="1.0" xmlns="http://www.w3.org/2000/svg" width="235px" height="235px" viewBox="0 0 2350 2350" preserveAspectRatio="xMidYMid meet">
<g id="layer101" fill="#368eb6" stroke="none">
 <path d="M634 2150 c-224 -34 -394 -184 -460 -406 -24 -80 -24 -246 0 -334 37 -139 127 -281 239 -379 194 -167 473 -217 677 -120 34 16 67 29 74 29 25 0 109 -65 140 -108 31 -42 32 -46 22 -98 -19 -106 34 -262 124 -366 45 -52 151 -126 220 -152 68 -27 175 -32 242 -12 169 49 248 222 189 414 -56 186 -232 338 -423 364 -63 9 -84 8 -157 -10 -84 -21 -84 -21 -112 -1 -15 10 -39 34 -54 51 -23 27 -26 38 -21 71 4 21 18 61 32 89 52 102 68 266 39 403 -18 87 -89 232 -149 305 -155 187 -409 294 -622 260z m212 -314 c88 -44 199 -149 253 -239 67 -114 101 -246 87 -340 l-7 -45 -50 19 c-55 21 -77 23 -99 9 -21 -13 -15 -84 10 -126 11 -20 20 -39 20 -44 0 -5 -24 -14 -53 -20 -188 -43 -450 157 -538 410 -33 93 -32 226 0 293 26 52 80 102 126 117 17 5 63 8 103 6 59 -2 85 -10 148 -40z m869 -1002 c118 -56 204 -216 175 -325 -16 -57 -73 -114 -123 -123 -81 -15 -198 43 -256 128 -34 49 -61 124 -61 170 l0 34 44 -5 c57 -7 74 17 57 82 -14 55 -14 53 7 59 34 10 118 -1 157 -20z"/>
 <path d="M335 711 c-95 -47 -175 -106 -175 -130 0 -20 23 -12 115 43 86 52 191 135 170 135 -5 0 -55 -22 -110 -48z"/>
 <path d="M408 613 c-86 -85 -115 -120 -105 -129 6 -7 182 167 196 194 6 12 9 22 5 22 -4 0 -47 -39 -96 -87z"/>
 <path d="M539 515 c-64 -78 -112 -164 -104 -187 10 -25 30 -12 70 46 28 40 101 206 91 206 -1 0 -27 -29 -57 -65z"/>
 </g>

</svg>