<!DOCTYPE svg PUBLIC "-//W3C//DTD SVG 20010904//EN" "http://www.w3.org/TR/2001/REC-SVG-20010904/DTD/svg10.dtd">
<svg version="1.0" xmlns="http://www.w3.org/2000/svg" width="290px" height="283px" viewBox="0 0 2900 2830" preserveAspectRatio="xMidYMid meet">
<g id="layer101" fill="#3f91b9" stroke="none">
<path d="M2366 1595 c-11 -29 -6 -119 8 -137 8 -11 27 -18 49 -18 44 0 50 15 45 105 l-3 60 -46 3 c-36 2 -48 -1 -53 -13z"/>
<path d="M167 1294 c-4 -4 -7 -35 -7 -69 0 -72 12 -88 62 -83 l33 3 0 75 0 75 -40 3 c-23 2 -44 0 -48 -4z"/>
<path d="M502 441 c-4 -11 -5 -49 -4 -86 l4 -66 46 3 47 3 0 80 0 80 -43 3 c-35 3 -44 0 -50 -17z"/>
<path d="M1507 254 c-4 -4 -7 -38 -7 -76 l0 -69 43 3 42 3 0 70 0 70 -35 3 c-20 2 -39 0 -43 -4z"/>
</g>
<g id="layer102" fill="#8ebfad" stroke="none">
<path d="M1934 2587 c-3 -8 -4 -45 -2 -83 l3 -69 31 -3 c45 -4 55 15 52 95 l-3 68 -38 3 c-25 2 -39 -1 -43 -11z"/>
<path d="M188 2139 c-23 -13 -26 -123 -4 -145 20 -19 56 -18 72 4 17 21 18 124 2 140 -15 15 -47 15 -70 1z"/>
<path d="M1436 2024 c-3 -9 -6 -42 -6 -74 0 -64 6 -70 66 -70 l34 0 0 64 c0 87 -5 96 -50 96 -25 0 -40 -5 -44 -16z"/>
<path d="M1774 852 c-7 -4 -11 -35 -10 -77 1 -65 3 -70 25 -73 12 -2 34 -1 47 2 22 6 24 11 24 69 0 36 -5 68 -12 75 -13 13 -57 16 -74 4z"/>
</g>
<g id="layer103" fill="#9ea1d2" stroke="none">
<path d="M612 2668 c-15 -15 -16 -112 -2 -139 7 -12 21 -19 40 -19 37 0 50 23 50 92 0 60 -12 78 -50 78 -14 0 -31 -5 -38 -12z"/>
<path d="M1004 1376 c-3 -7 -4 -40 -2 -72 l3 -59 35 -3 c46 -5 60 17 60 90 l0 58 -45 0 c-29 0 -48 -5 -51 -14z"/>
<path d="M2657 714 c-12 -12 -8 -139 5 -152 16 -16 63 -15 77 2 7 9 11 41 9 83 l-3 68 -40 3 c-23 2 -44 0 -48 -4z"/>
</g>


</svg>