<!DOCTYPE svg PUBLIC "-//W3C//DTD SVG 20010904//EN" "http://www.w3.org/TR/2001/REC-SVG-20010904/DTD/svg10.dtd">
<svg version="1.0" xmlns="http://www.w3.org/2000/svg" width="283px" height="290px" viewBox="0 0 2830 2900" preserveAspectRatio="xMidYMid meet">
<g id="layer101" fill="#000000" stroke="none">
<path d="M950 2891 c0 -13 29 -41 41 -41 20 0 49 21 49 35 0 11 -12 15 -45 15 -25 0 -45 -4 -45 -9z"/>
<path d="M1410 2891 c0 -12 29 -41 40 -41 19 0 41 14 51 31 9 17 6 19 -41 19 -27 0 -50 -4 -50 -9z"/>
<path d="M1560 2892 c0 -5 9 -17 21 -28 18 -17 23 -17 46 -4 46 26 40 40 -16 40 -28 0 -51 -4 -51 -8z"/>
<path d="M2800 2880 c6 -11 15 -20 20 -20 6 0 10 9 10 20 0 13 -7 20 -20 20 -18 0 -19 -3 -10 -20z"/>
<path d="M0 2775 c0 -43 1 -45 20 -35 22 12 27 49 8 68 -21 21 -28 13 -28 -33z"/>
<path d="M878 2795 c-9 -21 -8 -28 7 -45 23 -25 40 -25 65 0 24 24 25 34 4 54 -24 25 -63 20 -76 -9z"/>
<path d="M2052 2703 c-44 -18 -31 -83 16 -83 52 0 70 46 30 74 -24 17 -26 17 -46 9z"/>
<path d="M2668 2703 c-23 -6 -34 -49 -18 -68 7 -8 25 -15 41 -15 49 0 62 57 18 80 -10 6 -19 9 -21 9 -2 -1 -11 -3 -20 -6z"/>
<path d="M2805 2686 c-13 -19 -14 -29 -5 -45 18 -34 30 -24 30 24 0 25 -2 45 -5 45 -2 0 -12 -11 -20 -24z"/>
<path d="M344 2686 c-3 -8 -4 -25 -2 -38 2 -19 9 -23 37 -23 66 0 68 67 2 73 -21 2 -33 -2 -37 -12z"/>
<path d="M502 2688 c-26 -26 -6 -68 33 -68 27 0 45 18 45 46 0 32 -53 47 -78 22z"/>
<path d="M737 2572 c-34 -37 -11 -76 40 -70 23 2 29 9 31 33 6 48 -40 71 -71 37z"/>
<path d="M1188 2564 c-17 -36 0 -59 43 -59 30 0 34 3 37 28 7 57 -57 81 -80 31z"/>
<path d="M1656 2574 c-23 -23 -20 -51 8 -69 45 -30 91 16 61 61 -18 28 -47 31 -69 8z"/>
<path d="M2738 2579 c-24 -14 -23 -55 3 -72 48 -34 95 28 49 65 -25 21 -29 21 -52 7z"/>
<path d="M2110 2561 c-15 -29 -13 -39 14 -56 42 -27 89 13 66 56 -14 26 -66 26 -80 0z"/>
<path d="M2267 2573 c-16 -15 -6 -63 14 -73 41 -23 90 35 57 68 -13 13 -60 16 -71 5z"/>
<path d="M663 2458 c-21 -28 -22 -49 -3 -68 11 -11 25 -20 30 -20 13 0 50 37 50 50 0 15 -38 50 -54 50 -7 0 -18 -6 -23 -12z"/>
<path d="M812 2458 c-20 -20 -15 -66 9 -78 16 -9 26 -8 45 5 29 18 31 46 6 68 -22 20 -43 22 -60 5z"/>
<path d="M1422 2458 c-18 -18 -14 -53 8 -73 17 -15 24 -16 45 -7 45 21 29 92 -20 92 -12 0 -26 -5 -33 -12z"/>
<path d="M1576 2455 c-20 -20 -20 -35 0 -63 19 -27 45 -28 69 -2 41 46 -26 108 -69 65z"/>
<path d="M345 2440 c-15 -49 21 -81 61 -55 27 17 29 27 14 56 -15 26 -66 26 -75 -1z"/>
<path d="M284 2342 c-34 -23 -20 -82 19 -82 45 0 62 43 29 73 -20 19 -31 21 -48 9z"/>
<path d="M2108 2324 c-16 -34 0 -58 40 -62 26 -3 34 2 43 21 16 36 -3 67 -42 67 -22 0 -32 -6 -41 -26z"/>
<path d="M2584 2342 c-18 -12 -24 -42 -14 -63 16 -29 67 -26 81 5 21 44 -27 86 -67 58z"/>
<path d="M200 2216 c-16 -20 -9 -56 13 -70 39 -24 79 44 41 71 -23 17 -39 16 -54 -1z"/>
<path d="M2042 2218 c-7 -7 -12 -21 -12 -33 0 -12 5 -26 12 -33 7 -7 21 -12 33 -12 12 0 26 5 33 12 7 7 12 21 12 33 0 12 -5 26 -12 33 -7 7 -21 12 -33 12 -12 0 -26 -5 -33 -12z"/>
<path d="M2652 2218 c-28 -28 -7 -78 33 -78 29 0 45 19 45 51 0 37 -51 54 -78 27z"/>
<path d="M128 2099 c-32 -18 -11 -79 27 -79 15 0 45 27 45 41 0 11 -37 49 -47 49 -5 0 -16 -5 -25 -11z"/>
<path d="M879 2089 c-16 -30 3 -69 34 -69 29 0 47 17 47 45 0 45 -60 63 -81 24z"/>
<path d="M980 1992 c-56 -19 -26 -105 30 -87 21 7 36 46 25 64 -10 17 -39 29 -55 23z"/>
<path d="M1121 1983 c-26 -18 -27 -45 -2 -67 36 -32 88 5 71 50 -11 28 -43 36 -69 17z"/>
<path d="M1580 1980 c-11 -11 -20 -23 -20 -28 0 -17 32 -52 49 -52 20 0 51 30 51 48 0 15 -36 52 -50 52 -5 0 -19 -9 -30 -20z"/>
<path d="M1890 1980 c-11 -11 -20 -26 -20 -33 0 -18 32 -47 52 -47 17 0 48 31 48 48 0 15 -36 52 -50 52 -5 0 -19 -9 -30 -20z"/>
<path d="M2364 1990 c-30 -12 -37 -47 -13 -71 23 -23 42 -24 64 -3 34 34 -6 91 -51 74z"/>
<path d="M54 1982 c-22 -15 -24 -42 -5 -61 25 -25 59 -17 67 15 10 40 -29 69 -62 46z"/>
<path d="M203 1983 c-7 -2 -13 -18 -13 -33 0 -53 64 -64 76 -14 10 40 -22 64 -63 47z"/>
<path d="M352 1978 c-34 -34 6 -90 48 -68 25 13 28 65 4 74 -24 9 -39 7 -52 -6z"/>
<path d="M426 1854 c-23 -22 -20 -41 8 -59 31 -21 66 -5 66 28 0 44 -43 62 -74 31z"/>
<path d="M584 1862 c-21 -14 -23 -41 -5 -64 16 -20 22 -21 45 -10 19 9 26 19 26 41 0 35 -36 54 -66 33z"/>
<path d="M1030 1849 c-9 -16 -8 -26 5 -45 19 -29 46 -31 70 -4 15 17 16 24 7 45 -15 32 -66 35 -82 4z"/>
<path d="M1651 1856 c-20 -24 -5 -65 26 -72 35 -9 66 26 54 59 -10 27 -62 35 -80 13z"/>
<path d="M200 1736 c-6 -8 -10 -25 -8 -38 2 -19 9 -23 38 -23 29 0 36 4 38 23 4 28 -14 52 -38 52 -10 0 -23 -7 -30 -14z"/>
<path d="M500 1735 c-16 -20 -5 -62 19 -70 42 -13 72 25 51 65 -13 24 -52 27 -70 5z"/>
<path d="M800 1729 c-14 -26 11 -69 40 -69 11 0 27 11 35 24 23 34 5 66 -35 66 -19 0 -33 -7 -40 -21z"/>
<path d="M1732 1738 c-21 -21 -14 -57 14 -70 31 -14 57 -1 62 31 7 42 -46 69 -76 39z"/>
<path d="M125 1617 c-24 -18 -13 -63 17 -73 16 -5 27 -1 40 16 22 27 22 34 2 54 -19 20 -35 20 -59 3z"/>
<path d="M276 1614 c-22 -22 -20 -41 8 -59 41 -27 80 10 56 55 -13 24 -43 26 -64 4z"/>
<path d="M426 1614 c-21 -21 -20 -37 4 -59 41 -37 97 24 58 63 -17 17 -44 15 -62 -4z"/>
<path d="M584 1622 c-19 -13 -23 -39 -7 -61 18 -27 50 -24 69 4 24 37 -25 82 -62 57z"/>
<path d="M1340 1610 c-14 -27 -4 -57 21 -65 46 -15 81 24 59 65 -15 27 -65 27 -80 0z"/>
<path d="M1502 1618 c-7 -7 -12 -21 -12 -33 0 -12 5 -26 12 -33 7 -7 21 -12 33 -12 12 0 26 5 33 12 7 7 12 21 12 33 0 12 -5 26 -12 33 -7 7 -21 12 -33 12 -12 0 -26 -5 -33 -12z"/>
<path d="M2733 1623 c-16 -6 -17 -55 -1 -71 28 -28 78 -7 78 33 0 37 -36 55 -77 38z"/>
<path d="M52 1498 c-16 -16 -15 -53 3 -68 20 -17 54 -3 61 26 11 42 -34 72 -64 42z"/>
<path d="M356 1497 c-38 -27 2 -95 42 -71 21 14 28 64 10 75 -18 12 -31 11 -52 -4z"/>
<path d="M508 1499 c-42 -24 -5 -89 42 -74 29 9 38 55 15 72 -22 15 -34 16 -57 2z"/>
<path d="M1110 1489 c-29 -53 40 -96 74 -47 13 19 14 25 2 43 -19 29 -62 32 -76 4z"/>
<path d="M1576 1494 c-9 -8 -16 -22 -16 -29 0 -44 73 -61 91 -21 23 50 -36 90 -75 50z"/>
<path d="M1880 1490 c-14 -27 -4 -57 21 -65 46 -15 81 24 59 65 -15 27 -65 27 -80 0z"/>
<path d="M2800 1490 c-13 -24 -5 -56 15 -64 12 -4 15 4 15 39 0 48 -12 58 -30 25z"/>
<path d="M126 1371 c-22 -24 -13 -57 16 -67 16 -5 27 0 40 16 22 27 22 34 2 54 -21 21 -37 20 -58 -3z"/>
<path d="M282 1374 c-12 -8 -22 -21 -22 -29 0 -17 27 -45 45 -45 18 0 45 27 45 45 0 14 -26 45 -38 45 -4 0 -18 -7 -30 -16z"/>
<path d="M879 1369 c-16 -30 3 -69 34 -69 29 0 47 17 47 45 0 45 -60 63 -81 24z"/>
<path d="M967 1262 c-30 -33 -16 -82 24 -82 44 0 67 70 30 90 -27 14 -35 13 -54 -8z"/>
<path d="M2058 1273 c-20 -5 -34 -44 -24 -68 8 -23 34 -29 62 -16 47 21 12 96 -38 84z"/>
<path d="M200 1256 c-6 -8 -10 -25 -8 -38 2 -19 9 -23 38 -23 31 0 35 3 38 29 5 42 -41 64 -68 32z"/>
<path d="M351 1256 c-8 -10 -11 -26 -7 -41 6 -22 11 -26 39 -23 29 3 32 6 32 38 0 30 -4 35 -26 38 -14 2 -31 -4 -38 -12z"/>
<path d="M2645 1250 c-17 -54 42 -93 76 -51 29 35 8 71 -43 71 -18 0 -29 -6 -33 -20z"/>
<path d="M586 1144 c-27 -26 -18 -64 17 -77 18 -7 57 23 57 43 0 13 -37 50 -49 50 -5 0 -17 -7 -25 -16z"/>
<path d="M884 1135 c-20 -31 -10 -63 22 -71 31 -8 54 11 54 45 0 52 -48 69 -76 26z"/>
<path d="M1656 1138 c-20 -28 -20 -43 0 -62 23 -23 51 -20 70 9 15 23 15 27 0 50 -20 31 -50 32 -70 3z"/>
<path d="M2277 1142 c-32 -35 -15 -82 28 -82 46 0 62 57 23 84 -28 20 -31 20 -51 -2z"/>
<path d="M120 1130 c-8 -14 -8 -26 0 -40 14 -26 56 -26 70 -1 13 25 13 27 -6 45 -21 22 -51 20 -64 -4z"/>
<path d="M424 1136 c-3 -8 -4 -25 -2 -38 4 -32 63 -39 73 -9 11 36 -3 61 -36 61 -16 0 -32 -6 -35 -14z"/>
<path d="M512 1024 c-38 -26 -22 -74 24 -74 45 0 58 50 19 76 -18 12 -24 11 -43 -2z"/>
<path d="M1120 1020 c-23 -23 -24 -33 -10 -61 14 -26 55 -24 74 3 9 12 16 26 16 30 0 11 -38 48 -50 48 -5 0 -19 -9 -30 -20z"/>
<path d="M42 1013 c-6 -11 -6 -27 -1 -41 7 -18 15 -23 35 -20 35 4 53 31 38 56 -16 24 -60 28 -72 5z"/>
<path d="M582 908 c-17 -17 -15 -53 3 -68 20 -17 61 -5 68 19 11 42 -42 78 -71 49z"/>
<path d="M1042 908 c-27 -27 -7 -78 29 -78 21 0 49 26 49 45 0 35 -53 58 -78 33z"/>
<path d="M1818 908 c-8 -7 -18 -20 -21 -29 -7 -22 19 -59 43 -59 24 0 50 26 50 50 0 21 -25 50 -44 50 -7 0 -19 -6 -28 -12z"/>
<path d="M2577 902 c-22 -24 -21 -38 3 -62 27 -27 46 -25 66 5 15 23 15 27 0 50 -19 30 -46 32 -69 7z"/>
<path d="M2738 909 c-28 -16 -23 -67 7 -81 21 -9 28 -8 45 7 25 23 25 40 0 65 -23 23 -28 24 -52 9z"/>
<path d="M358 789 c-21 -12 -24 -49 -6 -67 18 -18 56 -14 68 7 12 24 4 48 -21 61 -21 12 -20 12 -41 -1z"/>
<path d="M655 780 c-37 -41 24 -97 63 -58 18 18 14 56 -7 68 -27 14 -35 13 -56 -10z"/>
<path d="M818 789 c-21 -12 -24 -49 -6 -67 39 -39 100 17 63 58 -20 22 -32 24 -57 9z"/>
<path d="M1115 776 c-26 -39 6 -76 54 -61 27 8 34 34 16 61 -20 31 -50 31 -70 0z"/>
<path d="M2501 781 c-24 -24 -17 -59 15 -73 46 -21 84 41 48 76 -21 21 -40 20 -63 -3z"/>
<path d="M2656 784 c-21 -21 -20 -47 2 -67 23 -21 36 -21 56 -1 22 21 20 61 -3 74 -27 14 -37 13 -55 -6z"/>
<path d="M0 636 c0 -35 4 -46 15 -46 23 0 36 41 21 64 -23 37 -36 30 -36 -18z"/>
<path d="M128 669 c-11 -6 -18 -22 -18 -39 0 -24 5 -31 27 -36 53 -14 84 40 41 70 -26 19 -27 19 -50 5z"/>
<path d="M276 665 c-30 -31 -13 -75 29 -75 37 0 57 36 37 66 -13 21 -49 25 -66 9z"/>
<path d="M425 660 c-15 -17 -16 -24 -7 -46 10 -21 18 -25 45 -22 27 3 32 7 35 33 3 19 -2 33 -14 42 -25 18 -38 16 -59 -7z"/>
<path d="M1048 669 c-23 -13 -24 -65 -2 -73 32 -12 55 -6 66 19 9 21 8 28 -7 45 -20 22 -32 24 -57 9z"/>
<path d="M2580 660 c-35 -35 -19 -70 32 -70 48 0 60 57 17 80 -24 13 -26 13 -49 -10z"/>
<path d="M46 544 c-9 -8 -16 -22 -16 -29 0 -7 7 -21 16 -29 30 -30 74 -13 74 29 0 42 -44 59 -74 29z"/>
<path d="M347 539 c-18 -25 -11 -56 14 -64 49 -16 86 30 53 66 -22 25 -49 24 -67 -2z"/>
<path d="M812 548 c-15 -15 -15 -51 0 -66 39 -39 100 17 63 58 -20 23 -45 26 -63 8z"/>
<path d="M1116 541 c-33 -36 4 -82 53 -66 27 8 34 34 16 61 -19 29 -46 31 -69 5z"/>
<path d="M128 429 c-21 -12 -24 -49 -6 -67 18 -18 56 -14 68 7 14 27 13 37 -6 55 -18 18 -32 20 -56 5z"/>
<path d="M212 313 c-7 -2 -17 -13 -22 -24 -24 -45 37 -80 74 -43 20 19 20 24 0 52 -15 22 -27 25 -52 15z"/>
<path d="M506 304 c-30 -30 -13 -74 29 -74 44 0 63 60 26 80 -27 14 -37 13 -55 -6z"/>
<path d="M659 301 c-21 -17 -22 -22 -11 -45 9 -21 18 -27 38 -24 15 2 33 13 41 25 13 19 12 24 -6 42 -26 26 -33 26 -62 2z"/>
<path d="M966 304 c-30 -30 -13 -74 29 -74 44 0 63 60 26 80 -27 14 -37 13 -55 -6z"/>
<path d="M1890 300 c-30 -30 -10 -70 37 -70 43 0 52 59 12 80 -24 13 -26 13 -49 -10z"/>
<path d="M2195 304 c-34 -35 -1 -83 48 -70 48 12 29 86 -22 86 -5 0 -17 -7 -26 -16z"/>
<path d="M2346 304 c-21 -20 -20 -37 2 -57 27 -25 60 -21 74 8 21 46 -40 86 -76 49z"/>
<path d="M2497 299 c-20 -28 -10 -58 21 -66 48 -12 81 37 47 71 -22 22 -51 20 -68 -5z"/>
<path d="M0 154 c0 -49 12 -55 37 -18 11 17 10 23 -3 42 -23 34 -34 26 -34 -24z"/>
<path d="M2273 193 c-7 -2 -13 -18 -13 -34 0 -58 80 -65 88 -9 6 36 -35 60 -75 43z"/>
<path d="M2340 60 c-17 -32 4 -60 45 -60 25 0 35 5 40 21 15 46 -62 81 -85 39z"/>
</g>
<g id="layer102" fill="#ffffff" stroke="none">
<path d="M32 2888 c2 -6 13 -17 24 -25 17 -11 23 -10 42 3 34 23 26 34 -24 34 -30 0 -44 -4 -42 -12z"/>
<path d="M186 2885 c14 -36 84 -36 84 0 0 11 -11 15 -45 15 -36 0 -43 -3 -39 -15z"/>
<path d="M340 2885 c0 -8 9 -19 21 -25 16 -9 26 -8 45 5 36 23 29 35 -21 35 -33 0 -45 -4 -45 -15z"/>
<path d="M492 2888 c2 -6 13 -17 24 -24 23 -15 64 -2 64 21 0 11 -11 15 -46 15 -30 0 -44 -4 -42 -12z"/>
<path d="M646 2885 c15 -38 65 -40 85 -4 9 17 6 19 -40 19 -41 0 -49 -3 -45 -15z"/>
<path d="M800 2885 c0 -8 9 -19 21 -25 16 -9 26 -8 45 5 36 23 29 35 -21 35 -33 0 -45 -4 -45 -15z"/>
<path d="M950 2893 c0 -13 14 -29 30 -35 22 -8 60 9 60 27 0 11 -11 15 -45 15 -25 0 -45 -3 -45 -7z"/>
<path d="M1100 2890 c0 -5 11 -17 25 -26 23 -15 27 -15 50 0 38 25 30 36 -25 36 -27 0 -50 -4 -50 -10z"/>
<path d="M1260 2885 c0 -23 35 -37 64 -25 44 16 33 40 -19 40 -33 0 -45 -4 -45 -15z"/>
<path d="M1410 2891 c0 -13 29 -41 41 -41 20 0 49 21 49 35 0 11 -12 15 -45 15 -25 0 -45 -4 -45 -9z"/>
<path d="M1560 2890 c0 -5 11 -17 25 -26 23 -15 27 -15 50 0 38 25 30 36 -25 36 -27 0 -50 -4 -50 -10z"/>
<path d="M1720 2885 c0 -24 43 -39 69 -26 38 21 26 41 -24 41 -34 0 -45 -4 -45 -15z"/>
<path d="M1870 2892 c0 -5 9 -17 19 -26 23 -21 56 -14 71 15 10 18 7 19 -40 19 -27 0 -50 -4 -50 -8z"/>
<path d="M2030 2881 c15 -29 48 -36 71 -15 30 27 23 34 -31 34 -47 0 -50 -1 -40 -19z"/>
<path d="M2180 2891 c0 -13 29 -41 41 -41 20 0 49 21 49 35 0 11 -12 15 -45 15 -25 0 -45 -4 -45 -9z"/>
<path d="M2336 2885 c15 -38 65 -40 85 -4 9 17 6 19 -40 19 -41 0 -49 -3 -45 -15z"/>
<path d="M2490 2885 c0 -14 29 -35 49 -35 12 0 41 28 41 41 0 5 -20 9 -45 9 -33 0 -45 -4 -45 -15z"/>
<path d="M2640 2890 c0 -16 46 -41 64 -34 9 3 21 15 27 25 9 17 6 19 -41 19 -27 0 -50 -4 -50 -10z"/>
<path d="M2802 2883 c5 -25 28 -28 28 -4 0 12 -6 21 -16 21 -9 0 -14 -7 -12 -17z"/>
<path d="M0 2779 c0 -33 3 -40 17 -37 22 4 29 44 13 64 -21 24 -30 16 -30 -27z"/>
<path d="M122 2808 c-19 -19 -14 -56 8 -68 38 -21 80 22 60 61 -12 21 -50 25 -68 7z"/>
<path d="M270 2805 c-15 -18 -6 -61 15 -69 8 -3 26 -1 40 4 27 10 34 47 13 68 -17 17 -53 15 -68 -3z"/>
<path d="M426 2805 c-21 -21 -20 -31 4 -55 25 -25 35 -25 60 0 15 15 17 25 11 42 -10 28 -52 35 -75 13z"/>
<path d="M582 2808 c-19 -19 -14 -56 9 -68 16 -9 26 -8 45 5 39 26 26 75 -21 75 -12 0 -26 -5 -33 -12z"/>
<path d="M730 2805 c-17 -20 -5 -62 20 -70 44 -14 80 41 48 73 -17 17 -53 15 -68 -3z"/>
<path d="M878 2794 c-11 -23 -10 -29 11 -45 29 -24 36 -24 61 1 24 24 25 34 4 54 -25 25 -63 20 -76 -10z"/>
<path d="M1042 2808 c-32 -32 4 -87 48 -73 25 8 37 50 20 70 -15 18 -51 20 -68 3z"/>
<path d="M1190 2805 c-16 -20 -5 -62 19 -70 44 -14 80 28 55 63 -17 25 -56 29 -74 7z"/>
<path d="M1338 2795 c-9 -21 -8 -28 7 -45 23 -25 36 -25 66 -1 21 16 22 22 11 45 -16 36 -67 37 -84 1z"/>
<path d="M1497 2813 c-16 -15 -6 -63 14 -74 46 -24 93 33 57 69 -13 13 -60 16 -71 5z"/>
<path d="M1652 2808 c-25 -25 -2 -78 34 -78 16 0 54 35 54 49 0 33 -64 53 -88 29z"/>
<path d="M1800 2799 c-9 -16 -8 -26 5 -45 19 -29 46 -31 70 -4 15 17 16 24 7 45 -15 32 -66 35 -82 4z"/>
<path d="M1962 2808 c-36 -36 7 -91 54 -69 42 19 26 81 -21 81 -12 0 -26 -5 -33 -12z"/>
<path d="M2108 2795 c-9 -21 -8 -28 7 -45 24 -27 51 -25 70 4 23 34 5 66 -36 66 -22 0 -32 -6 -41 -25z"/>
<path d="M2272 2808 c-32 -32 4 -87 48 -73 25 8 37 50 20 70 -15 18 -51 20 -68 3z"/>
<path d="M2422 2808 c-18 -18 -15 -43 8 -63 17 -15 24 -16 45 -7 43 20 28 82 -20 82 -12 0 -26 -5 -33 -12z"/>
<path d="M2570 2800 c-25 -46 36 -88 73 -51 18 17 19 24 9 46 -15 32 -66 35 -82 5z"/>
<path d="M2727 2813 c-16 -15 -6 -63 14 -74 46 -24 93 33 57 69 -13 13 -60 16 -71 5z"/>
<path d="M1431 2694 c-41 -29 -17 -78 36 -72 25 3 28 7 28 37 0 41 -30 58 -64 35z"/>
<path d="M1592 2703 c-22 -8 -34 -41 -22 -63 13 -24 62 -27 80 -5 25 30 -18 81 -58 68z"/>
<path d="M1742 2699 c-19 -7 -23 -15 -20 -41 2 -28 8 -34 31 -36 16 -2 35 2 43 9 35 29 -9 85 -54 68z"/>
<path d="M1891 2693 c-39 -27 -20 -73 31 -73 33 0 54 31 39 59 -14 25 -45 32 -70 14z"/>
<path d="M2054 2700 c-47 -18 -35 -80 15 -80 51 0 68 49 26 75 -13 8 -28 10 -41 5z"/>
<path d="M2201 2694 c-41 -29 -17 -78 36 -72 25 3 28 7 28 37 0 41 -30 58 -64 35z"/>
<path d="M2362 2703 c-22 -9 -34 -41 -22 -63 23 -44 101 -12 84 35 -5 13 -36 37 -46 34 -2 0 -9 -3 -16 -6z"/>
<path d="M2518 2703 c-23 -6 -34 -49 -18 -68 26 -32 86 -8 78 31 -4 21 -38 42 -60 37z"/>
<path d="M2668 2703 c-23 -6 -34 -49 -18 -68 29 -35 96 -7 82 35 -5 16 -32 41 -41 39 -3 -1 -14 -3 -23 -6z"/>
<path d="M42 2688 c-28 -28 -3 -72 39 -66 30 4 47 33 33 56 -14 21 -55 27 -72 10z"/>
<path d="M190 2681 c-17 -34 4 -63 43 -59 29 3 32 6 32 38 0 32 -3 35 -32 38 -24 2 -34 -2 -43 -17z"/>
<path d="M344 2686 c-3 -8 -4 -25 -2 -38 2 -18 10 -24 35 -26 39 -4 60 25 43 58 -13 24 -68 28 -76 6z"/>
<path d="M502 2688 c-28 -28 -3 -72 39 -66 30 4 47 33 33 56 -14 21 -55 27 -72 10z"/>
<path d="M650 2680 c-16 -30 4 -60 40 -60 19 0 33 7 40 20 16 30 -4 60 -40 60 -19 0 -33 -7 -40 -20z"/>
<path d="M804 2686 c-3 -8 -4 -25 -2 -38 2 -19 9 -23 37 -23 66 0 68 67 2 73 -21 2 -33 -2 -37 -12z"/>
<path d="M962 2688 c-30 -30 -3 -72 45 -66 25 3 28 7 28 38 0 32 -3 35 -30 38 -17 2 -36 -3 -43 -10z"/>
<path d="M1110 2680 c-16 -30 4 -60 40 -60 19 0 33 7 40 20 16 30 -4 60 -40 60 -19 0 -33 -7 -40 -20z"/>
<path d="M1264 2686 c-3 -8 -4 -25 -2 -38 2 -19 9 -23 37 -23 66 0 68 67 2 73 -21 2 -33 -2 -37 -12z"/>
<path d="M2800 2680 c-8 -14 -8 -26 0 -40 17 -32 30 -23 30 20 0 43 -13 52 -30 20z"/>
<path d="M742 2574 c-42 -29 -19 -78 35 -72 23 2 29 9 31 33 3 19 -2 33 -14 42 -22 16 -25 16 -52 -3z"/>
<path d="M885 2566 c-23 -34 -5 -66 35 -66 40 0 58 32 35 66 -8 13 -24 24 -35 24 -11 0 -27 -11 -35 -24z"/>
<path d="M1041 2576 c-7 -8 -11 -27 -9 -43 2 -22 9 -29 31 -31 50 -6 75 38 41 72 -19 20 -48 20 -63 2z"/>
<path d="M1196 2574 c-34 -34 -9 -78 41 -72 22 2 29 9 31 31 6 50 -38 75 -72 41z"/>
<path d="M1345 2566 c-26 -40 7 -82 52 -65 27 10 38 42 23 69 -15 28 -56 26 -75 -4z"/>
<path d="M1502 2578 c-20 -20 -15 -66 9 -78 16 -9 26 -8 45 5 41 27 27 85 -21 85 -12 0 -26 -5 -33 -12z"/>
<path d="M1655 2574 c-34 -35 6 -91 53 -73 15 6 22 17 22 37 0 49 -42 69 -75 36z"/>
<path d="M1810 2570 c-11 -11 -20 -24 -20 -30 0 -12 37 -50 48 -50 18 0 52 33 52 50 0 17 -34 50 -52 50 -5 0 -17 -9 -28 -20z"/>
<path d="M0 2541 c0 -42 5 -47 28 -32 19 12 11 65 -10 69 -15 3 -18 -4 -18 -37z"/>
<path d="M120 2565 c-7 -8 -10 -25 -6 -40 5 -20 13 -25 36 -25 36 0 56 30 40 60 -13 24 -52 26 -70 5z"/>
<path d="M272 2568 c-28 -28 -3 -72 39 -66 30 4 47 33 33 56 -14 21 -55 27 -72 10z"/>
<path d="M420 2561 c-17 -34 4 -63 43 -59 29 3 32 6 32 38 0 32 -3 35 -32 38 -24 2 -34 -2 -43 -17z"/>
<path d="M575 2561 c-12 -38 3 -62 37 -59 63 6 63 70 0 76 -23 2 -32 -2 -37 -17z"/>
<path d="M1955 2560 c-14 -43 13 -72 57 -62 23 5 34 48 18 67 -19 23 -67 19 -75 -5z"/>
<path d="M2110 2561 c-20 -38 21 -82 59 -62 44 24 31 81 -19 81 -19 0 -33 -7 -40 -19z"/>
<path d="M2267 2573 c-4 -3 -7 -19 -7 -35 0 -20 6 -31 23 -37 42 -17 84 31 57 64 -13 15 -61 20 -73 8z"/>
<path d="M2422 2568 c-19 -19 -14 -46 12 -63 36 -24 68 -5 64 38 -3 27 -7 32 -33 35 -17 2 -36 -3 -43 -10z"/>
<path d="M2577 2573 c-4 -3 -7 -19 -7 -34 0 -39 33 -56 66 -34 27 17 29 27 14 56 -10 19 -59 27 -73 12z"/>
<path d="M2727 2573 c-27 -27 15 -86 54 -76 24 7 36 48 19 68 -13 15 -61 21 -73 8z"/>
<path d="M511 2451 c-28 -28 -26 -47 3 -66 20 -13 29 -14 46 -5 27 15 24 57 -7 77 -19 13 -24 12 -42 -6z"/>
<path d="M668 2458 c-26 -22 -29 -47 -8 -68 11 -11 25 -20 30 -20 20 0 50 39 43 57 -6 18 -31 43 -43 43 -3 0 -13 -6 -22 -12z"/>
<path d="M812 2458 c-17 -17 -15 -54 4 -72 19 -20 24 -20 52 0 27 18 28 45 4 67 -22 20 -43 22 -60 5z"/>
<path d="M960 2451 c-16 -31 -12 -49 14 -66 19 -13 29 -14 45 -5 24 12 29 58 9 78 -18 18 -56 14 -68 -7z"/>
<path d="M1110 2450 c-22 -42 19 -92 59 -71 27 15 34 41 16 67 -19 30 -60 32 -75 4z"/>
<path d="M1272 2458 c-22 -22 -15 -67 13 -80 22 -10 29 -9 47 10 18 18 20 26 12 49 -10 31 -50 43 -72 21z"/>
<path d="M1420 2451 c-15 -29 -12 -46 10 -66 17 -15 24 -16 45 -7 27 13 35 58 13 80 -18 18 -56 14 -68 -7z"/>
<path d="M1584 2463 c-20 -15 -25 -46 -9 -69 19 -29 46 -31 70 -4 15 16 17 26 9 48 -10 27 -47 41 -70 25z"/>
<path d="M1732 2458 c-34 -34 2 -98 48 -83 24 7 37 51 23 74 -13 20 -54 26 -71 9z"/>
<path d="M1880 2451 c-15 -29 -12 -46 10 -66 39 -35 96 17 70 65 -14 27 -65 27 -80 1z"/>
<path d="M2035 2446 c-19 -29 -8 -61 26 -71 41 -13 78 52 47 83 -20 20 -56 14 -73 -12z"/>
<path d="M2190 2449 c-25 -47 15 -93 60 -69 23 12 28 58 8 78 -19 19 -56 14 -68 -9z"/>
<path d="M2344 2445 c-15 -23 -15 -27 0 -50 9 -14 25 -25 36 -25 11 0 27 11 36 25 15 23 15 27 0 50 -9 14 -25 25 -36 25 -11 0 -27 -11 -36 -25z"/>
<path d="M2506 2454 c-22 -22 -20 -61 4 -74 51 -27 95 36 50 72 -27 22 -34 22 -54 2z"/>
<path d="M2668 2462 c-29 -6 -34 -50 -10 -75 18 -18 25 -19 47 -9 21 10 26 18 23 43 -3 33 -27 49 -60 41z"/>
<path d="M38 2434 c-11 -23 -10 -29 11 -45 21 -17 26 -18 45 -6 41 27 27 77 -20 77 -17 0 -28 -9 -36 -26z"/>
<path d="M191 2438 c-10 -28 -4 -45 20 -59 32 -16 61 6 57 44 -3 28 -7 32 -36 35 -26 3 -34 -1 -41 -20z"/>
<path d="M350 2445 c-15 -19 -6 -61 16 -69 18 -7 64 18 64 35 0 42 -54 65 -80 34z"/>
<path d="M2800 2440 c-8 -14 -8 -26 0 -40 17 -32 30 -23 30 20 0 43 -13 52 -30 20z"/>
<path d="M0 2305 c0 -39 3 -46 18 -43 27 5 29 64 3 78 -20 10 -21 8 -21 -35z"/>
<path d="M126 2334 c-31 -31 -13 -74 31 -74 43 0 52 59 12 80 -23 13 -25 13 -43 -6z"/>
<path d="M275 2326 c-21 -31 -5 -66 28 -66 45 0 62 43 29 73 -25 23 -39 21 -57 -7z"/>
<path d="M432 2338 c-31 -31 -3 -82 40 -76 17 2 24 11 26 33 5 43 -38 71 -66 43z"/>
<path d="M582 2338 c-15 -15 -15 -51 0 -66 19 -19 56 -14 68 9 23 41 -35 90 -68 57z"/>
<path d="M729 2329 c-16 -30 3 -69 34 -69 29 0 47 17 47 45 0 45 -60 63 -81 24z"/>
<path d="M879 2329 c-8 -16 -8 -28 0 -46 9 -20 17 -24 44 -21 27 2 33 8 35 31 2 16 -2 35 -9 43 -17 21 -57 17 -70 -7z"/>
<path d="M1037 2343 c-12 -12 -7 -60 7 -73 8 -6 25 -10 37 -8 55 8 47 88 -9 88 -16 0 -32 -3 -35 -7z"/>
<path d="M1190 2334 c-10 -11 -11 -23 -4 -42 17 -48 84 -38 84 12 0 43 -53 63 -80 30z"/>
<path d="M1339 2329 c-8 -16 -8 -28 0 -45 15 -34 67 -34 82 0 16 35 -3 66 -41 66 -20 0 -33 -7 -41 -21z"/>
<path d="M1502 2338 c-7 -7 -12 -21 -12 -33 0 -12 5 -26 12 -33 7 -7 21 -12 33 -12 12 0 26 5 33 12 7 7 12 21 12 33 0 12 -5 26 -12 33 -7 7 -21 12 -33 12 -12 0 -26 -5 -33 -12z"/>
<path d="M1652 2338 c-16 -16 -15 -53 2 -67 8 -7 27 -11 42 -9 53 6 50 88 -4 88 -15 0 -33 -5 -40 -12z"/>
<path d="M1800 2325 c-14 -38 3 -65 41 -65 22 0 32 6 41 26 16 34 0 58 -41 62 -26 3 -33 -1 -41 -23z"/>
<path d="M1962 2338 c-28 -28 -10 -78 28 -78 35 0 52 21 48 57 -2 23 -8 29 -33 31 -17 2 -36 -3 -43 -10z"/>
<path d="M2109 2329 c-8 -16 -8 -28 0 -45 15 -34 67 -34 82 0 16 35 -3 66 -41 66 -20 0 -33 -7 -41 -21z"/>
<path d="M2271 2336 c-7 -8 -11 -27 -9 -43 6 -51 88 -41 88 11 0 42 -53 63 -79 32z"/>
<path d="M2418 2324 c-17 -36 0 -59 43 -59 31 0 34 3 37 34 4 37 -9 51 -46 51 -15 0 -27 -9 -34 -26z"/>
<path d="M2584 2342 c-17 -11 -22 -35 -13 -59 12 -33 65 -32 80 1 21 44 -27 86 -67 58z"/>
<path d="M2732 2338 c-30 -30 -3 -83 39 -76 32 5 45 31 31 62 -13 28 -49 35 -70 14z"/>
<path d="M52 2218 c-17 -17 -15 -53 3 -68 12 -10 21 -10 40 -2 29 13 33 43 9 66 -19 19 -36 20 -52 4z"/>
<path d="M202 2218 c-35 -35 15 -99 53 -68 21 18 19 57 -4 70 -25 13 -34 13 -49 -2z"/>
<path d="M350 2215 c-7 -8 -10 -25 -6 -39 12 -48 76 -41 76 8 0 42 -45 62 -70 31z"/>
<path d="M500 2211 c-5 -11 -10 -24 -10 -30 0 -14 29 -41 45 -41 18 0 45 27 45 45 0 20 -28 45 -50 45 -11 0 -24 -9 -30 -19z"/>
<path d="M648 2205 c-9 -21 -8 -28 7 -45 31 -34 75 -20 75 25 0 48 -62 63 -82 20z"/>
<path d="M813 2223 c-18 -7 -16 -58 2 -73 20 -17 62 -5 70 20 13 42 -27 72 -72 53z"/>
<path d="M962 2218 c-32 -32 4 -87 48 -73 25 8 37 50 20 70 -15 18 -51 20 -68 3z"/>
<path d="M1110 2210 c-15 -29 -4 -59 26 -66 34 -9 56 12 52 50 -3 27 -7 31 -35 34 -24 2 -34 -2 -43 -18z"/>
<path d="M1267 2223 c-13 -12 -7 -60 8 -73 38 -31 96 27 65 65 -13 15 -61 21 -73 8z"/>
<path d="M1420 2215 c-31 -38 27 -96 65 -65 18 15 20 51 3 68 -17 17 -53 15 -68 -3z"/>
<path d="M1570 2209 c-9 -16 -8 -26 5 -45 19 -29 46 -31 70 -4 15 17 16 24 7 45 -15 32 -66 35 -82 4z"/>
<path d="M1732 2218 c-36 -36 7 -91 54 -69 42 19 26 81 -21 81 -12 0 -26 -5 -33 -12z"/>
<path d="M1880 2210 c-27 -50 32 -92 73 -52 18 18 19 25 9 47 -15 32 -66 35 -82 5z"/>
<path d="M2042 2218 c-30 -30 -3 -82 40 -76 29 4 47 50 28 72 -15 19 -51 21 -68 4z"/>
<path d="M2188 2205 c-15 -33 -1 -59 34 -63 31 -4 50 19 46 55 -2 23 -8 29 -35 31 -27 3 -35 -1 -45 -23z"/>
<path d="M2340 2204 c-14 -37 3 -64 41 -64 37 0 58 35 40 69 -17 32 -68 29 -81 -5z"/>
<path d="M2502 2218 c-13 -13 -15 -37 -6 -62 7 -19 55 -21 72 -4 28 28 7 78 -33 78 -12 0 -26 -5 -33 -12z"/>
<path d="M2648 2204 c-14 -31 -1 -57 31 -62 28 -4 51 14 51 42 0 50 -62 65 -82 20z"/>
<path d="M2808 2216 c-22 -21 -23 -36 -4 -62 20 -26 28 -14 24 37 -3 41 -4 42 -20 25z"/>
<path d="M0 2065 c0 -46 7 -54 28 -33 19 19 14 56 -8 68 -19 10 -20 8 -20 -35z"/>
<path d="M125 2097 c-13 -10 -16 -21 -11 -40 8 -34 41 -44 67 -21 24 22 24 29 -1 54 -24 24 -30 24 -55 7z"/>
<path d="M276 2094 c-21 -21 -20 -37 3 -58 39 -36 85 6 56 50 -18 28 -37 30 -59 8z"/>
<path d="M426 2088 c-13 -19 -14 -25 -2 -43 7 -11 21 -21 30 -23 42 -9 64 58 27 78 -28 15 -38 13 -55 -12z"/>
<path d="M582 2098 c-17 -17 -15 -53 3 -68 8 -7 25 -10 40 -6 43 11 30 86 -15 86 -9 0 -21 -5 -28 -12z"/>
<path d="M732 2098 c-30 -30 -3 -83 39 -76 32 5 45 31 31 62 -13 28 -49 35 -70 14z"/>
<path d="M880 2090 c-15 -29 -3 -59 26 -66 30 -8 54 11 54 40 0 46 -59 64 -80 26z"/>
<path d="M1030 2089 c-14 -26 11 -69 40 -69 20 0 50 25 50 41 0 47 -69 69 -90 28z"/>
<path d="M1192 2098 c-28 -28 -7 -78 33 -78 12 0 26 5 33 12 7 7 12 21 12 33 0 12 -5 26 -12 33 -7 7 -21 12 -33 12 -12 0 -26 -5 -33 -12z"/>
<path d="M1340 2090 c-14 -27 -4 -57 21 -65 46 -15 81 24 59 65 -15 27 -65 27 -80 0z"/>
<path d="M1502 2098 c-7 -7 -12 -21 -12 -33 0 -12 5 -26 12 -33 7 -7 21 -12 33 -12 12 0 26 5 33 12 7 7 12 21 12 33 0 12 -5 26 -12 33 -7 7 -21 12 -33 12 -12 0 -26 -5 -33 -12z"/>
<path d="M1650 2090 c-16 -29 -3 -59 27 -66 46 -12 77 52 39 78 -21 14 -55 8 -66 -12z"/>
<path d="M1814 2102 c-34 -23 -12 -82 32 -82 32 0 51 38 35 69 -12 21 -46 28 -67 13z"/>
<path d="M1960 2094 c-10 -11 -11 -23 -4 -42 17 -48 84 -38 84 12 0 43 -53 63 -80 30z"/>
<path d="M2110 2089 c-14 -26 11 -69 40 -69 20 0 50 25 50 41 0 47 -69 69 -90 28z"/>
<path d="M2272 2098 c-7 -7 -12 -21 -12 -33 0 -12 5 -26 12 -33 7 -7 21 -12 33 -12 12 0 26 5 33 12 7 7 12 21 12 33 0 12 -5 26 -12 33 -7 7 -21 12 -33 12 -12 0 -26 -5 -33 -12z"/>
<path d="M2420 2091 c-14 -27 -13 -37 6 -55 23 -23 51 -20 69 8 13 19 14 29 5 45 -14 28 -65 29 -80 2z"/>
<path d="M2582 2098 c-17 -17 -15 -53 3 -68 20 -17 62 -5 70 20 14 44 -41 80 -73 48z"/>
<path d="M2732 2098 c-7 -7 -12 -25 -12 -40 0 -51 81 -50 88 1 7 42 -46 69 -76 39z"/>
<path d="M972 1984 c-44 -31 -12 -95 38 -79 21 7 36 46 25 64 -14 24 -42 30 -63 15z"/>
<path d="M1121 1984 c-26 -19 -27 -46 -1 -69 17 -15 24 -16 46 -7 20 10 25 18 22 43 -4 39 -35 55 -67 33z"/>
<path d="M1283 1989 c-17 -6 -23 -16 -23 -38 0 -54 73 -68 86 -16 10 40 -24 69 -63 54z"/>
<path d="M1429 1981 c-17 -13 -20 -24 -15 -44 13 -55 90 -41 84 15 -4 40 -38 55 -69 29z"/>
<path d="M1594 1990 c-30 -11 -37 -39 -19 -66 19 -29 46 -31 69 -5 32 36 -5 88 -50 71z"/>
<path d="M1742 1984 c-49 -34 -6 -103 47 -74 28 14 25 57 -4 76 -18 12 -24 11 -43 -2z"/>
<path d="M1889 1979 c-24 -24 -24 -41 -1 -62 25 -22 45 -21 67 3 38 42 -25 100 -66 59z"/>
<path d="M2053 1989 c-17 -6 -23 -16 -23 -38 0 -54 73 -68 86 -16 10 40 -24 69 -63 54z"/>
<path d="M2201 1983 c-26 -18 -27 -45 -3 -66 26 -24 49 -21 67 7 30 45 -20 91 -64 59z"/>
<path d="M2364 1990 c-30 -12 -37 -47 -13 -71 10 -10 25 -19 32 -19 20 0 49 36 45 56 -5 25 -39 44 -64 34z"/>
<path d="M2509 1981 c-44 -35 1 -98 51 -71 20 11 26 45 12 66 -14 21 -41 23 -63 5z"/>
<path d="M53 1983 c-19 -7 -16 -60 3 -71 25 -14 53 -3 60 24 10 40 -22 64 -63 47z"/>
<path d="M202 1978 c-18 -18 -14 -56 7 -68 26 -14 50 -3 57 26 11 42 -34 72 -64 42z"/>
<path d="M352 1978 c-34 -34 6 -90 48 -68 35 19 20 80 -20 80 -9 0 -21 -5 -28 -12z"/>
<path d="M500 1975 c-16 -20 -5 -62 19 -70 42 -13 72 25 51 65 -13 24 -52 27 -70 5z"/>
<path d="M648 1965 c-10 -22 -9 -29 10 -47 18 -19 25 -20 47 -10 44 20 28 82 -22 82 -15 0 -27 -9 -35 -25z"/>
<path d="M800 1969 c-14 -26 11 -69 40 -69 11 0 27 11 35 24 23 34 5 66 -35 66 -19 0 -33 -7 -40 -21z"/>
<path d="M2652 1978 c-27 -27 -1 -78 38 -78 29 0 54 43 40 69 -12 24 -58 29 -78 9z"/>
<path d="M2798 1965 c-10 -22 -9 -29 10 -48 l22 -21 0 47 c0 52 -14 61 -32 22z"/>
<path d="M0 1829 c0 -33 3 -40 17 -37 22 4 29 44 13 64 -21 24 -30 16 -30 -27z"/>
<path d="M125 1857 c-13 -10 -16 -21 -12 -39 9 -34 43 -42 68 -17 23 23 24 33 3 53 -19 20 -35 20 -59 3z"/>
<path d="M275 1854 c-20 -21 -16 -43 12 -61 19 -13 24 -12 42 6 25 25 26 35 5 55 -20 20 -38 20 -59 0z"/>
<path d="M425 1854 c-9 -9 -14 -23 -11 -31 3 -8 6 -16 6 -18 0 -3 9 -9 20 -15 27 -15 60 4 60 33 0 44 -44 62 -75 31z"/>
<path d="M583 1862 c-11 -7 -16 -26 -14 -49 0 -7 10 -17 21 -23 30 -16 60 4 60 39 0 36 -35 53 -67 33z"/>
<path d="M732 1858 c-32 -32 4 -87 48 -73 25 8 37 50 20 70 -15 18 -51 20 -68 3z"/>
<path d="M880 1855 c-17 -20 -5 -62 20 -70 44 -14 80 41 48 73 -17 17 -53 15 -68 -3z"/>
<path d="M1031 1848 c-19 -49 39 -87 74 -48 15 17 16 24 7 45 -16 34 -69 36 -81 3z"/>
<path d="M1192 1858 c-36 -36 7 -91 54 -69 42 19 26 81 -21 81 -12 0 -26 -5 -33 -12z"/>
<path d="M1338 1845 c-9 -21 -8 -28 7 -45 24 -27 51 -25 70 4 23 34 5 66 -36 66 -22 0 -32 -6 -41 -25z"/>
<path d="M1502 1858 c-32 -32 4 -87 48 -73 25 8 37 50 20 70 -15 18 -51 20 -68 3z"/>
<path d="M1652 1858 c-18 -18 -15 -42 7 -62 37 -33 88 5 70 52 -9 25 -56 31 -77 10z"/>
<path d="M1801 1848 c-10 -28 -4 -46 21 -59 42 -22 88 30 58 66 -20 24 -69 19 -79 -7z"/>
<path d="M1960 1855 c-17 -20 -5 -62 20 -70 44 -14 80 41 48 73 -17 17 -53 15 -68 -3z"/>
<path d="M2110 1849 c-9 -16 -8 -26 5 -45 19 -29 46 -31 70 -4 15 17 16 24 7 45 -15 32 -66 35 -82 4z"/>
<path d="M2272 1858 c-36 -36 7 -91 54 -69 42 19 26 81 -21 81 -12 0 -26 -5 -33 -12z"/>
<path d="M2418 1845 c-9 -21 -8 -28 7 -45 24 -27 51 -25 70 4 23 34 5 66 -36 66 -22 0 -32 -6 -41 -25z"/>
<path d="M2582 1858 c-32 -32 4 -87 48 -73 25 8 37 50 20 70 -15 18 -51 20 -68 3z"/>
<path d="M2732 1858 c-36 -36 7 -91 54 -69 42 19 26 81 -21 81 -12 0 -26 -5 -33 -12z"/>
<path d="M46 1728 c-21 -30 -4 -58 34 -58 23 0 31 5 36 25 12 50 -41 75 -70 33z"/>
<path d="M200 1736 c-6 -8 -10 -25 -8 -38 2 -18 10 -24 35 -26 28 -3 33 1 39 23 11 45 -37 75 -66 41z"/>
<path d="M350 1736 c-6 -8 -10 -25 -8 -38 2 -19 9 -23 38 -23 29 0 36 4 38 23 4 28 -14 52 -38 52 -10 0 -23 -7 -30 -14z"/>
<path d="M502 1738 c-25 -25 -2 -78 33 -78 18 0 45 27 45 45 0 35 -53 58 -78 33z"/>
<path d="M650 1730 c-23 -43 17 -83 60 -60 22 12 27 49 8 68 -19 19 -56 14 -68 -8z"/>
<path d="M806 1734 c-20 -19 -20 -24 0 -52 20 -29 50 -28 69 2 32 48 -28 91 -69 50z"/>
<path d="M962 1738 c-17 -17 -15 -53 3 -68 38 -31 96 27 65 65 -15 18 -51 20 -68 3z"/>
<path d="M1110 1730 c-15 -29 -3 -59 26 -66 32 -8 54 11 54 46 0 43 -60 57 -80 20z"/>
<path d="M1273 1743 c-18 -7 -16 -58 2 -73 20 -17 62 -5 70 20 13 42 -27 72 -72 53z"/>
<path d="M1420 1735 c-31 -38 27 -96 65 -65 18 15 20 51 3 68 -17 17 -53 15 -68 -3z"/>
<path d="M1570 1729 c-14 -26 11 -69 40 -69 20 0 50 25 50 41 0 47 -69 69 -90 28z"/>
<path d="M1732 1738 c-36 -36 7 -91 54 -69 42 19 26 81 -21 81 -12 0 -26 -5 -33 -12z"/>
<path d="M1878 1725 c-9 -21 -8 -28 7 -45 10 -11 26 -20 35 -20 9 0 25 9 35 20 27 30 7 70 -35 70 -23 0 -33 -6 -42 -25z"/>
<path d="M2040 1736 c-31 -38 9 -89 54 -68 45 20 30 82 -20 82 -12 0 -27 -7 -34 -14z"/>
<path d="M2190 1730 c-16 -29 -3 -59 27 -66 46 -12 77 52 39 78 -21 14 -55 8 -66 -12z"/>
<path d="M2353 1743 c-18 -7 -16 -58 2 -73 20 -17 62 -5 70 20 13 42 -27 72 -72 53z"/>
<path d="M2500 1735 c-17 -20 -5 -62 20 -70 44 -14 80 41 48 73 -17 17 -53 15 -68 -3z"/>
<path d="M2652 1738 c-27 -27 -1 -78 38 -78 29 0 54 43 40 69 -12 24 -58 29 -78 9z"/>
<path d="M2798 1725 c-10 -22 -9 -29 10 -48 l22 -21 0 47 c0 52 -14 61 -32 22z"/>
<path d="M0 1585 c0 -43 1 -45 20 -35 22 12 27 49 8 68 -21 21 -28 13 -28 -33z"/>
<path d="M128 1619 c-22 -12 -23 -42 -2 -63 20 -21 30 -20 54 4 24 24 25 34 4 54 -18 18 -32 20 -56 5z"/>
<path d="M276 1614 c-9 -8 -16 -22 -16 -29 0 -13 37 -45 52 -45 12 0 38 31 38 45 0 18 -27 45 -45 45 -7 0 -21 -7 -29 -16z"/>
<path d="M426 1614 c-20 -20 -20 -27 3 -55 16 -21 22 -22 45 -11 17 8 26 19 26 35 0 44 -43 62 -74 31z"/>
<path d="M584 1622 c-19 -13 -23 -39 -8 -61 26 -36 74 -21 74 24 0 36 -37 57 -66 37z"/>
<path d="M732 1618 c-17 -17 -15 -53 3 -68 20 -17 62 -5 70 20 14 44 -41 80 -73 48z"/>
<path d="M880 1610 c-15 -29 -3 -59 26 -66 30 -8 54 11 54 40 0 46 -59 64 -80 26z"/>
<path d="M1030 1609 c-14 -26 11 -69 40 -69 20 0 50 25 50 41 0 47 -69 69 -90 28z"/>
<path d="M1192 1618 c-28 -28 -7 -78 33 -78 12 0 26 5 33 12 7 7 12 21 12 33 0 12 -5 26 -12 33 -7 7 -21 12 -33 12 -12 0 -26 -5 -33 -12z"/>
<path d="M1340 1610 c-27 -50 32 -92 73 -52 18 18 19 25 9 47 -15 32 -66 35 -82 5z"/>
<path d="M1502 1618 c-30 -30 -3 -82 40 -76 29 4 47 50 28 72 -15 19 -51 21 -68 4z"/>
<path d="M1650 1610 c-16 -29 -3 -59 27 -66 46 -12 77 52 39 78 -21 14 -55 8 -66 -12z"/>
<path d="M1814 1622 c-38 -26 -7 -90 39 -78 30 7 43 37 27 66 -11 20 -45 26 -66 12z"/>
<path d="M1960 1615 c-31 -38 27 -96 65 -65 18 15 20 51 3 68 -17 17 -53 15 -68 -3z"/>
<path d="M2110 1609 c-14 -26 11 -69 40 -69 20 0 50 25 50 41 0 47 -69 69 -90 28z"/>
<path d="M2272 1618 c-7 -7 -12 -21 -12 -33 0 -12 5 -26 12 -33 7 -7 21 -12 33 -12 12 0 26 5 33 12 7 7 12 21 12 33 0 12 -5 26 -12 33 -7 7 -21 12 -33 12 -12 0 -26 -5 -33 -12z"/>
<path d="M2420 1610 c-27 -50 32 -92 73 -52 18 18 19 25 9 47 -15 32 -66 35 -82 5z"/>
<path d="M2582 1618 c-17 -17 -15 -53 3 -68 20 -17 62 -5 70 20 14 44 -41 80 -73 48z"/>
<path d="M2733 1623 c-7 -2 -13 -18 -13 -34 0 -57 80 -66 88 -10 6 40 -32 62 -75 44z"/>
<path d="M52 1498 c-18 -18 -14 -56 7 -68 26 -14 50 -3 57 26 11 42 -34 72 -64 42z"/>
<path d="M208 1499 c-24 -14 -23 -56 2 -69 42 -22 82 34 48 68 -14 14 -27 15 -50 1z"/>
<path d="M356 1497 c-38 -27 2 -95 42 -71 21 14 28 50 12 70 -15 17 -31 18 -54 1z"/>
<path d="M506 1494 c-9 -8 -16 -22 -16 -29 0 -18 27 -45 45 -45 20 0 45 28 45 50 0 18 -27 40 -49 40 -5 0 -17 -7 -25 -16z"/>
<path d="M650 1490 c-15 -29 -3 -59 26 -66 30 -8 54 11 54 40 0 46 -59 64 -80 26z"/>
<path d="M806 1494 c-9 -8 -16 -19 -16 -22 0 -18 33 -52 50 -52 22 0 50 25 50 45 0 20 -28 45 -50 45 -10 0 -26 -7 -34 -16z"/>
<path d="M962 1498 c-28 -28 -7 -78 33 -78 12 0 26 5 33 12 7 7 12 21 12 33 0 12 -5 26 -12 33 -7 7 -21 12 -33 12 -12 0 -26 -5 -33 -12z"/>
<path d="M1109 1489 c-16 -30 3 -69 34 -69 29 0 47 17 47 45 0 45 -60 63 -81 24z"/>
<path d="M1272 1498 c-7 -7 -12 -21 -12 -33 0 -47 62 -63 81 -21 22 47 -33 90 -69 54z"/>
<path d="M1422 1498 c-7 -7 -12 -21 -12 -33 0 -12 5 -26 12 -33 7 -7 21 -12 33 -12 12 0 26 5 33 12 7 7 12 21 12 33 0 12 -5 26 -12 33 -7 7 -21 12 -33 12 -12 0 -26 -5 -33 -12z"/>
<path d="M1576 1494 c-9 -8 -16 -22 -16 -29 0 -20 28 -45 50 -45 20 0 50 25 50 41 0 44 -53 64 -84 33z"/>
<path d="M1732 1498 c-7 -7 -12 -21 -12 -33 0 -12 5 -26 12 -33 7 -7 21 -12 33 -12 12 0 26 5 33 12 7 7 12 21 12 33 0 12 -5 26 -12 33 -7 7 -21 12 -33 12 -12 0 -26 -5 -33 -12z"/>
<path d="M1880 1491 c-5 -11 -10 -24 -10 -30 0 -16 30 -41 50 -41 22 0 50 25 50 45 0 41 -71 61 -90 26z"/>
<path d="M2042 1498 c-7 -7 -12 -21 -12 -33 0 -12 5 -26 12 -33 7 -7 21 -12 33 -12 12 0 26 5 33 12 7 7 12 21 12 33 0 12 -5 26 -12 33 -7 7 -21 12 -33 12 -12 0 -26 -5 -33 -12z"/>
<path d="M2189 1489 c-16 -31 3 -69 35 -69 44 0 66 59 32 82 -21 15 -55 8 -67 -13z"/>
<path d="M2346 1488 c-13 -19 -14 -25 -2 -43 20 -31 63 -32 77 -2 25 54 -41 94 -75 45z"/>
<path d="M2500 1494 c-10 -11 -11 -23 -4 -42 17 -48 84 -38 84 12 0 43 -53 63 -80 30z"/>
<path d="M2652 1498 c-26 -26 -1 -78 38 -78 22 0 50 25 50 45 0 36 -62 59 -88 33z"/>
<path d="M2798 1485 c-10 -22 -9 -29 10 -48 l22 -21 0 47 c0 52 -14 61 -32 22z"/>
<path d="M0 1345 c0 -43 1 -45 20 -35 22 12 27 49 8 68 -21 21 -28 13 -28 -33z"/>
<path d="M127 1372 c-21 -23 -21 -36 -1 -56 20 -21 30 -20 54 4 24 24 25 34 4 54 -20 21 -37 20 -57 -2z"/>
<path d="M292 1383 c-7 -2 -17 -14 -23 -25 -8 -15 -7 -24 7 -39 9 -10 23 -19 30 -19 17 0 44 28 44 45 0 14 -27 46 -38 44 -4 0 -13 -3 -20 -6z"/>
<path d="M430 1370 c-17 -17 -18 -24 -10 -41 15 -27 34 -33 59 -19 27 14 28 56 2 70 -26 13 -28 13 -51 -10z"/>
<path d="M582 1378 c-16 -16 -15 -53 3 -68 19 -16 45 -10 61 15 26 39 -31 86 -64 53z"/>
<path d="M732 1378 c-15 -15 -15 -51 0 -66 18 -18 56 -14 68 7 14 27 13 37 -6 55 -18 19 -45 21 -62 4z"/>
<path d="M886 1374 c-19 -18 -20 -28 -6 -55 20 -37 80 -18 80 26 0 42 -44 59 -74 29z"/>
<path d="M1036 1369 c-15 -22 -11 -48 8 -61 21 -14 55 -8 66 11 14 27 13 37 -6 55 -22 22 -50 20 -68 -5z"/>
<path d="M1192 1378 c-28 -28 -7 -78 33 -78 12 0 26 5 33 12 7 7 12 21 12 33 0 12 -5 26 -12 33 -7 7 -21 12 -33 12 -12 0 -26 -5 -33 -12z"/>
<path d="M1346 1374 c-19 -18 -20 -28 -6 -55 19 -35 90 -15 90 26 0 20 -28 45 -50 45 -10 0 -26 -7 -34 -16z"/>
<path d="M1502 1378 c-7 -7 -12 -21 -12 -33 0 -12 5 -26 12 -33 7 -7 21 -12 33 -12 12 0 26 5 33 12 7 7 12 21 12 33 0 12 -5 26 -12 33 -7 7 -21 12 -33 12 -12 0 -26 -5 -33 -12z"/>
<path d="M1649 1369 c-16 -30 3 -69 33 -69 45 0 66 35 42 69 -20 27 -60 27 -75 0z"/>
<path d="M1806 1368 c-13 -19 -14 -25 -2 -43 20 -31 63 -32 77 -2 25 54 -41 94 -75 45z"/>
<path d="M1962 1378 c-7 -7 -12 -21 -12 -33 0 -12 5 -26 12 -33 7 -7 21 -12 33 -12 12 0 26 5 33 12 7 7 12 21 12 33 0 12 -5 26 -12 33 -7 7 -21 12 -33 12 -12 0 -26 -5 -33 -12z"/>
<path d="M2116 1374 c-9 -8 -16 -22 -16 -29 0 -21 29 -45 55 -45 22 0 45 25 45 49 0 16 -30 41 -50 41 -10 0 -26 -7 -34 -16z"/>
<path d="M2272 1378 c-7 -7 -12 -21 -12 -33 0 -12 5 -26 12 -33 7 -7 21 -12 33 -12 12 0 26 5 33 12 7 7 12 21 12 33 0 12 -5 26 -12 33 -7 7 -21 12 -33 12 -12 0 -26 -5 -33 -12z"/>
<path d="M2426 1374 c-9 -8 -16 -22 -16 -29 0 -19 28 -45 48 -45 39 1 58 37 36 69 -18 25 -46 27 -68 5z"/>
<path d="M2582 1378 c-7 -7 -12 -21 -12 -33 0 -44 60 -63 80 -26 14 27 13 37 -6 55 -18 19 -45 21 -62 4z"/>
<path d="M2727 1383 c-11 -11 -8 -58 5 -71 28 -28 78 -7 78 33 0 12 -5 26 -12 33 -13 13 -60 16 -71 5z"/>
<path d="M660 1260 c-25 -25 -25 -32 -1 -61 16 -21 22 -22 45 -11 33 15 37 65 7 82 -26 13 -28 13 -51 -10z"/>
<path d="M818 1268 c-24 -20 -28 -44 -11 -67 20 -29 53 -24 72 11 14 24 14 28 -3 47 -22 24 -36 26 -58 9z"/>
<path d="M967 1262 c-31 -34 -12 -82 32 -82 37 0 55 72 22 90 -27 14 -35 13 -54 -8z"/>
<path d="M1120 1260 c-24 -24 -25 -43 -4 -64 23 -23 51 -20 70 9 15 23 15 27 0 50 -20 30 -39 32 -66 5z"/>
<path d="M1278 1269 c-21 -12 -24 -59 -6 -77 26 -26 78 -1 78 38 0 21 -25 50 -43 50 -7 0 -20 -5 -29 -11z"/>
<path d="M1425 1260 c-37 -40 18 -105 60 -70 22 18 19 67 -4 80 -27 14 -35 13 -56 -10z"/>
<path d="M1580 1260 c-25 -25 -25 -32 -2 -60 39 -48 102 3 68 55 -20 30 -39 32 -66 5z"/>
<path d="M1736 1264 c-25 -25 -20 -63 10 -76 32 -15 58 -1 62 34 3 27 -20 58 -43 58 -7 0 -21 -7 -29 -16z"/>
<path d="M1890 1260 c-11 -11 -20 -26 -20 -33 0 -18 32 -47 52 -47 17 0 48 31 48 48 0 15 -36 52 -50 52 -5 0 -19 -9 -30 -20z"/>
<path d="M2058 1273 c-22 -5 -35 -50 -21 -72 23 -37 88 -12 81 32 -4 24 -36 45 -60 40z"/>
<path d="M51 1256 c-7 -8 -11 -25 -9 -38 2 -18 9 -23 32 -23 36 0 56 27 40 53 -14 22 -48 27 -63 8z"/>
<path d="M200 1255 c-7 -9 -10 -25 -6 -40 6 -22 11 -26 39 -23 25 2 33 8 35 26 7 44 -41 70 -68 37z"/>
<path d="M352 1258 c-29 -29 -3 -72 40 -66 19 2 23 9 23 38 0 30 -4 35 -25 38 -14 2 -31 -3 -38 -10z"/>
<path d="M498 1244 c-11 -23 -10 -29 11 -45 21 -17 26 -18 45 -6 41 27 27 77 -20 77 -17 0 -28 -9 -36 -26z"/>
<path d="M2190 1250 c-15 -29 -3 -59 26 -66 32 -8 54 11 54 46 0 43 -60 57 -80 20z"/>
<path d="M2354 1262 c-38 -26 -7 -90 39 -78 30 7 43 37 27 66 -11 20 -45 26 -66 12z"/>
<path d="M2500 1255 c-17 -20 -5 -62 20 -70 44 -14 80 41 48 73 -17 17 -53 15 -68 -3z"/>
<path d="M2652 1258 c-26 -26 2 -78 41 -78 21 0 47 38 39 59 -11 31 -57 42 -80 19z"/>
<path d="M2800 1250 c-8 -14 -8 -26 0 -40 17 -32 30 -23 30 20 0 43 -13 52 -30 20z"/>
<path d="M586 1144 c-31 -30 -16 -74 25 -74 49 0 62 57 18 80 -23 13 -25 13 -43 -6z"/>
<path d="M737 1142 c-10 -10 -17 -26 -17 -35 0 -19 26 -47 45 -47 20 0 45 28 45 50 0 21 -25 50 -44 50 -7 0 -20 -8 -29 -18z"/>
<path d="M884 1135 c-9 -14 -13 -32 -9 -44 8 -26 50 -38 70 -21 22 18 19 67 -4 80 -29 15 -39 13 -57 -15z"/>
<path d="M1048 1149 c-22 -12 -24 -62 -3 -79 42 -35 97 30 60 70 -20 22 -32 24 -57 9z"/>
<path d="M1197 1142 c-32 -35 -15 -82 28 -82 12 0 26 5 33 12 19 19 15 66 -7 78 -27 14 -35 13 -54 -8z"/>
<path d="M1344 1135 c-19 -29 -11 -61 17 -70 51 -16 89 37 54 75 -24 27 -51 25 -71 -5z"/>
<path d="M1506 1144 c-32 -31 -14 -84 29 -84 27 0 45 18 45 46 0 25 -24 54 -45 54 -7 0 -21 -7 -29 -16z"/>
<path d="M1654 1135 c-20 -31 -10 -63 23 -71 47 -12 73 41 40 84 -15 20 -45 14 -63 -13z"/>
<path d="M1818 1148 c-25 -21 -28 -45 -9 -69 13 -17 24 -20 44 -15 35 8 46 49 22 76 -21 23 -35 25 -57 8z"/>
<path d="M1965 1140 c-24 -26 -13 -68 20 -76 48 -12 75 45 39 80 -21 21 -37 20 -59 -4z"/>
<path d="M2120 1140 c-11 -11 -20 -23 -20 -28 0 -18 33 -52 50 -52 22 0 50 26 50 46 0 16 -35 54 -50 54 -5 0 -19 -9 -30 -20z"/>
<path d="M2282 1144 c-39 -27 -23 -84 24 -84 46 0 59 60 19 86 -18 12 -24 11 -43 -2z"/>
<path d="M0 1109 c0 -33 3 -40 17 -37 22 4 29 44 13 64 -21 24 -30 16 -30 -27z"/>
<path d="M122 1133 c-6 -10 -6 -28 -1 -40 11 -29 54 -31 69 -4 13 25 13 27 -6 45 -21 21 -51 20 -62 -1z"/>
<path d="M274 1136 c-12 -32 0 -61 28 -64 34 -4 54 27 38 58 -12 23 -58 27 -66 6z"/>
<path d="M424 1136 c-12 -31 0 -61 27 -64 33 -4 53 20 45 53 -5 20 -13 25 -37 25 -16 0 -32 -6 -35 -14z"/>
<path d="M2420 1130 c-15 -29 -3 -59 26 -66 30 -8 54 11 54 40 0 46 -59 64 -80 26z"/>
<path d="M2570 1129 c-14 -26 11 -69 40 -69 20 0 50 25 50 41 0 47 -69 69 -90 28z"/>
<path d="M2727 1143 c-16 -15 -6 -63 14 -74 46 -24 93 33 57 69 -13 13 -60 16 -71 5z"/>
<path d="M660 1020 c-24 -24 -24 -30 -7 -54 9 -12 23 -17 42 -14 25 2 31 8 33 33 3 19 -2 33 -14 42 -24 17 -30 17 -54 -7z"/>
<path d="M818 1029 c-34 -19 -12 -89 27 -89 14 0 45 37 45 52 0 10 -38 48 -47 48 -5 0 -16 -5 -25 -11z"/>
<path d="M970 1022 c-30 -24 -21 -69 15 -78 48 -12 75 45 39 80 -20 20 -27 20 -54 -2z"/>
<path d="M1120 1020 c-11 -11 -20 -26 -20 -34 0 -20 28 -46 50 -46 17 0 50 34 50 52 0 11 -38 48 -50 48 -5 0 -19 -9 -30 -20z"/>
<path d="M1278 1029 c-21 -12 -24 -59 -6 -77 29 -29 78 -3 78 40 -1 33 -42 55 -72 37z"/>
<path d="M1432 1024 c-39 -27 -23 -84 23 -84 12 0 26 5 33 12 19 19 15 66 -7 78 -25 13 -22 13 -49 -6z"/>
<path d="M1580 1020 c-24 -24 -25 -43 -4 -65 25 -25 67 -15 79 19 8 24 6 31 -14 47 -29 24 -36 24 -61 -1z"/>
<path d="M1742 1024 c-39 -27 -23 -84 23 -84 12 0 26 5 33 12 19 19 15 66 -7 78 -25 13 -22 13 -49 -6z"/>
<path d="M1890 1020 c-23 -23 -24 -33 -10 -61 21 -39 90 -16 90 30 0 14 -37 51 -50 51 -5 0 -19 -9 -30 -20z"/>
<path d="M2058 1033 c-22 -5 -35 -50 -21 -72 13 -21 57 -26 72 -7 27 33 -9 89 -51 79z"/>
<path d="M2200 1020 c-23 -23 -24 -33 -10 -61 13 -22 52 -25 69 -5 37 44 -19 106 -59 66z"/>
<path d="M44 1016 c-3 -8 -4 -25 -2 -38 2 -18 9 -23 32 -23 36 0 56 27 40 53 -14 22 -62 28 -70 8z"/>
<path d="M197 1024 c-4 -4 -7 -20 -7 -35 0 -22 6 -30 25 -35 40 -10 57 2 53 38 -3 29 -7 33 -33 36 -17 2 -34 0 -38 -4z"/>
<path d="M347 1024 c-12 -12 -8 -51 7 -64 8 -6 25 -10 38 -8 19 2 23 9 23 38 0 32 -3 35 -30 38 -17 2 -34 0 -38 -4z"/>
<path d="M502 1018 c-28 -28 -3 -72 39 -66 30 4 47 33 33 56 -14 21 -55 27 -72 10z"/>
<path d="M2342 1006 c-8 -18 -7 -28 4 -45 34 -48 103 -4 75 48 -17 30 -64 29 -79 -3z"/>
<path d="M2502 1018 c-7 -7 -12 -21 -12 -33 0 -12 5 -26 12 -33 7 -7 21 -12 33 -12 12 0 26 5 33 12 7 7 12 21 12 33 0 12 -5 26 -12 33 -7 7 -21 12 -33 12 -12 0 -26 -5 -33 -12z"/>
<path d="M2650 1015 c-31 -38 27 -96 65 -65 18 15 20 51 3 68 -17 17 -53 15 -68 -3z"/>
<path d="M2800 1009 c-9 -16 -8 -26 5 -45 8 -13 18 -24 20 -24 3 0 5 20 5 45 0 48 -12 58 -30 24z"/>
<path d="M0 875 c0 -46 7 -54 28 -33 19 19 14 56 -8 68 -19 10 -20 8 -20 -35z"/>
<path d="M128 909 c-34 -19 -16 -79 23 -79 19 0 49 25 49 41 0 11 -37 49 -47 49 -5 0 -16 -5 -25 -11z"/>
<path d="M276 904 c-9 -8 -16 -22 -16 -29 0 -35 53 -58 78 -33 25 25 2 78 -33 78 -7 0 -21 -7 -29 -16z"/>
<path d="M425 896 c-8 -13 -13 -31 -9 -40 8 -22 50 -31 69 -16 21 18 19 57 -4 70 -29 15 -39 13 -56 -14z"/>
<path d="M588 909 c-22 -12 -23 -52 -3 -69 20 -17 61 -5 68 19 5 22 -18 61 -36 61 -7 0 -20 -5 -29 -11z"/>
<path d="M736 904 c-31 -31 -13 -74 31 -74 21 0 43 25 43 49 0 14 -29 41 -45 41 -7 0 -21 -7 -29 -16z"/>
<path d="M886 901 c-23 -25 -13 -59 20 -67 30 -8 54 11 54 40 0 45 -44 61 -74 27z"/>
<path d="M1048 909 c-34 -19 -16 -79 23 -79 21 0 49 26 49 45 0 17 -27 45 -43 45 -7 0 -20 -5 -29 -11z"/>
<path d="M1196 904 c-30 -29 -10 -74 33 -74 43 0 59 60 22 80 -27 14 -37 13 -55 -6z"/>
<path d="M1344 895 c-15 -23 -15 -27 0 -51 22 -32 55 -29 75 8 14 24 14 28 -3 47 -25 28 -52 26 -72 -4z"/>
<path d="M1506 904 c-30 -30 -14 -84 25 -84 44 0 67 70 30 90 -27 14 -37 13 -55 -6z"/>
<path d="M1656 898 c-20 -28 -20 -43 0 -62 23 -23 51 -20 70 9 15 23 15 27 0 50 -20 31 -50 32 -70 3z"/>
<path d="M1818 909 c-21 -12 -24 -59 -6 -77 26 -26 78 -1 78 38 0 21 -25 50 -43 50 -7 0 -20 -5 -29 -11z"/>
<path d="M1965 900 c-24 -26 -13 -68 20 -76 32 -8 55 11 55 45 0 50 -42 67 -75 31z"/>
<path d="M2120 900 c-24 -24 -24 -29 -4 -58 20 -29 50 -28 70 3 15 23 15 27 0 50 -20 30 -39 32 -66 5z"/>
<path d="M2276 904 c-31 -31 -11 -84 33 -84 16 0 41 30 41 50 0 22 -25 50 -45 50 -7 0 -21 -7 -29 -16z"/>
<path d="M2426 898 c-21 -29 -20 -41 4 -63 17 -15 24 -16 45 -7 45 21 27 92 -24 92 -5 0 -17 -10 -25 -22z"/>
<path d="M2576 901 c-23 -25 -13 -58 21 -74 22 -10 28 -8 44 12 24 29 24 36 -1 61 -25 25 -42 25 -64 1z"/>
<path d="M2738 909 c-26 -14 -23 -65 3 -79 16 -9 26 -8 45 5 29 19 31 38 4 65 -23 23 -28 24 -52 9z"/>
<path d="M50 782 c-17 -13 -21 -24 -16 -40 9 -26 50 -39 71 -22 21 18 19 57 -4 70 -25 13 -25 13 -51 -8z"/>
<path d="M200 780 c-11 -11 -20 -24 -20 -29 0 -16 30 -41 49 -41 40 0 57 61 22 80 -26 13 -28 13 -51 -10z"/>
<path d="M358 789 c-22 -12 -23 -52 -4 -69 42 -34 94 22 56 60 -23 23 -28 24 -52 9z"/>
<path d="M506 784 c-30 -30 -13 -74 29 -74 44 0 63 60 26 80 -27 14 -37 13 -55 -6z"/>
<path d="M655 776 c-21 -31 -5 -66 28 -66 46 0 66 59 28 80 -29 15 -39 13 -56 -14z"/>
<path d="M818 789 c-22 -12 -23 -52 -3 -69 8 -7 25 -10 39 -6 33 8 43 42 20 67 -19 21 -31 23 -56 8z"/>
<path d="M966 784 c-30 -30 -13 -74 29 -74 44 0 63 60 26 80 -27 14 -37 13 -55 -6z"/>
<path d="M1115 776 c-18 -27 -11 -53 16 -61 47 -15 80 25 52 64 -19 28 -49 27 -68 -3z"/>
<path d="M1278 789 c-36 -21 -16 -79 27 -79 42 0 59 44 29 74 -18 18 -32 20 -56 5z"/>
<path d="M1425 780 c-15 -17 -16 -24 -7 -45 20 -43 82 -28 82 20 0 45 -44 59 -75 25z"/>
<path d="M1588 789 c-21 -12 -24 -49 -6 -67 18 -18 56 -14 68 7 14 27 13 37 -6 55 -18 18 -32 20 -56 5z"/>
<path d="M1736 784 c-19 -18 -20 -28 -6 -55 12 -21 50 -25 68 -7 18 18 14 56 -7 68 -27 14 -37 13 -55 -6z"/>
<path d="M1892 788 c-29 -29 -7 -78 35 -78 35 0 52 43 28 70 -20 23 -45 26 -63 8z"/>
<path d="M2045 784 c-9 -9 -15 -28 -13 -43 2 -20 9 -27 31 -29 50 -6 75 38 41 72 -20 20 -38 20 -59 0z"/>
<path d="M2196 778 c-21 -29 -20 -41 2 -61 23 -21 36 -21 56 -1 22 21 20 61 -3 74 -28 15 -38 13 -55 -12z"/>
<path d="M2358 789 c-25 -14 -24 -65 2 -79 42 -23 82 25 55 66 -17 26 -30 29 -57 13z"/>
<path d="M2508 789 c-28 -16 -23 -67 7 -81 46 -21 86 40 49 76 -18 18 -32 20 -56 5z"/>
<path d="M2656 784 c-22 -22 -20 -50 6 -68 28 -20 33 -20 52 0 22 21 20 61 -3 74 -27 14 -37 13 -55 -6z"/>
<path d="M2800 770 c-8 -14 -8 -26 0 -40 17 -32 30 -23 30 20 0 43 -13 52 -30 20z"/>
<path d="M0 635 c0 -34 4 -45 15 -45 36 0 36 70 0 84 -12 4 -15 -3 -15 -39z"/>
<path d="M128 669 c-23 -13 -24 -65 -2 -73 32 -12 55 -6 66 20 11 23 10 29 -11 45 -27 22 -30 22 -53 8z"/>
<path d="M276 664 c-30 -30 -13 -74 29 -74 46 0 60 48 23 74 -28 20 -33 20 -52 0z"/>
<path d="M425 660 c-15 -17 -16 -24 -7 -45 11 -25 34 -31 66 -19 23 9 21 61 -3 74 -27 14 -35 13 -56 -10z"/>
<path d="M586 667 c-12 -9 -17 -23 -14 -42 3 -26 8 -30 35 -33 27 -3 35 1 45 24 11 23 10 28 -11 45 -28 23 -32 23 -55 6z"/>
<path d="M736 664 c-30 -30 -13 -74 29 -74 42 0 59 44 29 74 -8 9 -22 16 -29 16 -7 0 -21 -7 -29 -16z"/>
<path d="M885 660 c-15 -17 -16 -24 -7 -46 10 -21 18 -25 45 -22 27 3 32 7 35 33 3 19 -2 33 -14 42 -25 18 -38 16 -59 -7z"/>
<path d="M1048 669 c-21 -12 -24 -49 -6 -67 39 -39 100 17 63 58 -20 22 -32 24 -57 9z"/>
<path d="M1197 662 c-30 -33 -15 -72 28 -72 44 0 63 60 26 80 -27 14 -35 13 -54 -8z"/>
<path d="M1350 660 c-28 -28 -13 -64 29 -68 25 -3 33 2 43 22 9 22 8 29 -7 46 -23 25 -40 25 -65 0z"/>
<path d="M1506 664 c-30 -30 -13 -74 29 -74 44 0 63 60 26 80 -27 14 -37 13 -55 -6z"/>
<path d="M1672 673 c-22 -9 -34 -41 -22 -63 23 -44 101 -12 84 35 -5 13 -36 37 -46 34 -2 0 -9 -3 -16 -6z"/>
<path d="M1818 669 c-36 -21 -16 -79 27 -79 42 0 59 44 29 74 -18 18 -32 20 -56 5z"/>
<path d="M1965 660 c-15 -17 -16 -24 -7 -46 10 -21 18 -25 45 -22 27 3 32 7 35 33 3 19 -2 33 -14 42 -25 18 -38 16 -59 -7z"/>
<path d="M2128 669 c-21 -12 -24 -49 -6 -67 19 -19 56 -14 68 9 9 16 8 26 -5 45 -17 26 -30 29 -57 13z"/>
<path d="M2275 660 c-37 -41 24 -97 63 -58 17 17 15 44 -4 62 -21 21 -37 20 -59 -4z"/>
<path d="M2432 664 c-43 -30 -12 -84 41 -70 22 5 27 12 27 36 0 19 -7 33 -19 40 -25 13 -22 13 -49 -6z"/>
<path d="M2592 673 c-22 -9 -34 -41 -22 -63 23 -44 101 -12 84 35 -5 13 -36 37 -46 34 -2 0 -9 -3 -16 -6z"/>
<path d="M2736 667 c-12 -9 -17 -23 -14 -42 2 -24 8 -31 31 -33 54 -6 77 43 35 72 -27 19 -30 19 -52 3z"/>
<path d="M46 541 c-23 -25 -13 -59 20 -67 30 -8 54 11 54 40 0 45 -44 61 -74 27z"/>
<path d="M195 536 c-8 -13 -13 -31 -9 -40 8 -22 50 -31 69 -16 21 18 19 57 -4 70 -29 15 -39 13 -56 -14z"/>
<path d="M352 548 c-32 -32 -1 -85 42 -74 31 8 40 33 21 62 -17 26 -44 31 -63 12z"/>
<path d="M508 549 c-36 -21 -16 -79 27 -79 44 0 63 60 26 80 -24 12 -31 12 -53 -1z"/>
<path d="M656 545 c-19 -19 -20 -29 -6 -56 14 -26 55 -24 74 3 13 19 14 25 2 43 -17 26 -49 31 -70 10z"/>
<path d="M812 548 c-17 -17 -15 -53 3 -68 20 -17 62 -5 70 21 13 40 -44 76 -73 47z"/>
<path d="M966 544 c-30 -30 -13 -74 29 -74 44 0 63 60 26 80 -27 14 -37 13 -55 -6z"/>
<path d="M1115 536 c-18 -27 -11 -53 16 -61 26 -8 56 2 63 22 9 22 -20 63 -44 63 -11 0 -26 -11 -35 -24z"/>
<path d="M1278 549 c-36 -21 -16 -79 27 -79 42 0 59 44 29 74 -18 18 -32 20 -56 5z"/>
<path d="M1426 545 c-19 -19 -20 -29 -6 -56 14 -26 55 -24 74 3 13 19 14 25 2 43 -17 26 -49 31 -70 10z"/>
<path d="M1582 548 c-7 -7 -12 -21 -12 -33 0 -44 60 -63 80 -26 14 27 13 37 -6 55 -18 19 -45 21 -62 4z"/>
<path d="M1736 544 c-19 -18 -20 -28 -6 -55 20 -37 80 -18 80 26 0 42 -44 59 -74 29z"/>
<path d="M1886 538 c-13 -19 -14 -25 -2 -43 21 -31 63 -32 78 -1 9 22 8 29 -7 46 -24 26 -50 25 -69 -2z"/>
<path d="M2046 544 c-30 -30 -13 -74 29 -74 42 0 59 44 29 74 -8 9 -22 16 -29 16 -7 0 -21 -7 -29 -16z"/>
<path d="M2195 536 c-19 -29 -10 -54 21 -62 30 -8 54 11 54 40 0 47 -49 62 -75 22z"/>
<path d="M2358 549 c-21 -12 -24 -49 -6 -67 18 -18 56 -14 68 7 14 27 13 37 -6 55 -18 18 -32 20 -56 5z"/>
<path d="M2501 541 c-25 -25 -17 -59 17 -68 48 -12 81 37 47 71 -22 21 -41 20 -64 -3z"/>
<path d="M2648 534 c-14 -31 -1 -57 31 -62 28 -4 51 14 51 42 0 50 -62 65 -82 20z"/>
<path d="M2814 552 c-20 -12 -25 -47 -10 -68 20 -26 28 -14 24 35 -2 27 -7 38 -14 33z"/>
<path d="M0 394 c0 -49 12 -55 37 -18 11 17 10 23 -3 42 -23 34 -34 26 -34 -24z"/>
<path d="M128 429 c-10 -5 -18 -20 -18 -32 0 -44 44 -62 74 -31 20 20 20 38 0 58 -18 18 -32 20 -56 5z"/>
<path d="M276 425 c-30 -31 -13 -75 29 -75 37 0 57 36 37 66 -13 21 -49 25 -66 9z"/>
<path d="M425 420 c-37 -41 24 -97 63 -58 18 18 14 56 -7 68 -27 14 -35 13 -56 -10z"/>
<path d="M588 429 c-22 -12 -23 -52 -3 -69 21 -17 62 -4 71 22 5 16 1 27 -16 40 -25 21 -29 21 -52 7z"/>
<path d="M736 424 c-30 -30 -13 -74 29 -74 42 0 59 44 29 74 -8 9 -22 16 -29 16 -7 0 -21 -7 -29 -16z"/>
<path d="M885 420 c-37 -41 24 -97 63 -58 18 18 14 56 -7 68 -27 14 -35 13 -56 -10z"/>
<path d="M1048 429 c-21 -12 -24 -49 -6 -67 39 -39 100 17 63 58 -20 22 -32 24 -57 9z"/>
<path d="M1196 424 c-19 -18 -20 -28 -6 -55 12 -21 50 -25 68 -7 18 18 14 56 -7 68 -27 14 -37 13 -55 -6z"/>
<path d="M1350 420 c-30 -30 -10 -70 38 -70 14 0 26 9 34 25 9 21 8 28 -7 45 -23 25 -40 25 -65 0z"/>
<path d="M1506 424 c-30 -30 -13 -74 29 -74 44 0 63 60 26 80 -27 14 -37 13 -55 -6z"/>
<path d="M1660 420 c-11 -11 -20 -24 -20 -29 0 -16 31 -41 50 -41 19 0 50 25 50 41 0 12 -37 49 -50 49 -5 0 -19 -9 -30 -20z"/>
<path d="M1818 429 c-36 -21 -16 -79 27 -79 42 0 59 44 29 74 -18 18 -32 20 -56 5z"/>
<path d="M1965 420 c-37 -41 24 -97 63 -58 18 18 14 56 -7 68 -27 14 -35 13 -56 -10z"/>
<path d="M2128 429 c-21 -12 -24 -49 -6 -67 39 -39 100 17 63 58 -20 22 -32 24 -57 9z"/>
<path d="M2277 422 c-30 -33 -15 -72 28 -72 42 0 59 44 29 74 -20 21 -37 20 -57 -2z"/>
<path d="M2422 428 c-7 -7 -12 -21 -12 -33 0 -12 5 -26 12 -33 29 -29 78 -7 78 35 0 35 -53 56 -78 31z"/>
<path d="M2576 424 c-19 -18 -20 -28 -6 -55 13 -23 53 -25 74 -3 21 20 20 37 -2 57 -23 21 -46 22 -66 1z"/>
<path d="M2732 428 c-7 -7 -12 -25 -12 -40 0 -50 81 -51 88 -1 6 40 -48 69 -76 41z"/>
<path d="M49 301 c-21 -16 -22 -22 -11 -45 13 -28 49 -35 70 -14 18 18 14 56 -7 68 -25 13 -25 13 -52 -9z"/>
<path d="M212 313 c-22 -9 -34 -41 -22 -63 14 -26 52 -26 75 0 17 18 17 21 1 45 -16 24 -28 29 -54 18z"/>
<path d="M358 309 c-23 -13 -24 -65 -2 -73 25 -10 42 -7 58 10 21 20 20 30 -4 54 -23 23 -28 24 -52 9z"/>
<path d="M506 304 c-30 -30 -13 -74 29 -74 48 0 64 63 19 80 -32 13 -30 13 -48 -6z"/>
<path d="M659 301 c-21 -16 -22 -22 -11 -45 13 -28 49 -35 70 -14 18 18 14 56 -7 68 -25 13 -25 13 -52 -9z"/>
<path d="M818 309 c-21 -12 -24 -49 -6 -67 18 -18 56 -14 68 7 12 24 4 48 -21 61 -21 12 -20 12 -41 -1z"/>
<path d="M966 304 c-30 -30 -13 -74 29 -74 42 0 59 44 29 74 -8 9 -22 16 -29 16 -7 0 -21 -7 -29 -16z"/>
<path d="M1132 313 c-7 -2 -17 -13 -22 -24 -24 -45 37 -80 74 -43 21 20 20 30 -4 54 -21 21 -26 22 -48 13z"/>
<path d="M1278 309 c-36 -21 -16 -79 27 -79 42 0 59 44 29 74 -18 18 -32 20 -56 5z"/>
<path d="M1429 301 c-21 -16 -22 -22 -11 -45 11 -26 34 -32 66 -20 23 9 21 61 -3 74 -25 13 -25 13 -52 -9z"/>
<path d="M1588 309 c-21 -12 -24 -49 -6 -67 39 -39 100 17 63 58 -20 22 -32 24 -57 9z"/>
<path d="M1735 300 c-37 -41 24 -97 63 -58 18 18 14 56 -7 68 -27 14 -35 13 -56 -10z"/>
<path d="M1898 309 c-23 -13 -24 -65 -2 -73 61 -23 101 44 43 74 -21 12 -20 12 -41 -1z"/>
<path d="M2046 304 c-30 -30 -13 -74 29 -74 42 0 59 44 29 74 -8 9 -22 16 -29 16 -7 0 -21 -7 -29 -16z"/>
<path d="M2196 304 c-30 -30 -13 -74 29 -74 44 0 63 60 26 80 -27 14 -37 13 -55 -6z"/>
<path d="M2346 304 c-20 -19 -20 -24 0 -52 21 -31 61 -29 76 4 11 23 10 29 -11 45 -28 23 -45 24 -65 3z"/>
<path d="M2502 308 c-7 -7 -12 -25 -12 -40 0 -50 81 -51 88 -1 6 40 -48 69 -76 41z"/>
<path d="M2656 304 c-30 -30 -13 -74 29 -74 44 0 63 60 26 80 -27 14 -37 13 -55 -6z"/>
<path d="M2805 296 c-13 -19 -14 -29 -5 -45 18 -34 30 -24 30 24 0 25 -2 45 -5 45 -2 0 -12 -11 -20 -24z"/>
<path d="M0 155 c0 -42 2 -45 19 -36 27 15 32 35 15 60 -23 33 -34 25 -34 -24z"/>
<path d="M122 188 c-17 -17 -15 -53 3 -68 20 -17 62 -5 70 20 14 44 -41 80 -73 48z"/>
<path d="M278 189 c-22 -12 -23 -52 -2 -69 22 -19 68 -1 72 28 6 43 -31 64 -70 41z"/>
<path d="M426 184 c-9 -8 -16 -22 -16 -29 0 -7 7 -21 16 -29 30 -30 74 -13 74 29 0 42 -44 59 -74 29z"/>
<path d="M582 188 c-27 -27 -7 -78 29 -78 21 0 49 26 49 45 0 35 -53 58 -78 33z"/>
<path d="M732 188 c-15 -15 -15 -51 0 -66 15 -15 51 -15 66 0 28 28 7 78 -33 78 -12 0 -26 -5 -33 -12z"/>
<path d="M886 184 c-9 -8 -16 -22 -16 -29 0 -7 7 -21 16 -29 30 -30 74 -13 74 29 0 42 -44 59 -74 29z"/>
<path d="M1042 188 c-27 -27 -7 -78 29 -78 21 0 49 26 49 45 0 35 -53 58 -78 33z"/>
<path d="M1196 184 c-9 -8 -16 -22 -16 -29 0 -7 7 -21 16 -29 30 -30 74 -13 74 29 0 42 -44 59 -74 29z"/>
<path d="M1346 178 c-13 -19 -14 -25 -2 -43 17 -26 49 -31 70 -10 20 21 20 39 0 59 -22 22 -50 20 -68 -6z"/>
<path d="M1508 189 c-21 -12 -24 -49 -6 -67 28 -28 78 -7 78 33 0 40 -35 56 -72 34z"/>
<path d="M1656 181 c-33 -36 4 -82 53 -66 27 8 34 34 16 61 -19 29 -46 31 -69 5z"/>
<path d="M1812 188 c-28 -28 -7 -78 33 -78 42 0 59 44 29 74 -18 19 -45 21 -62 4z"/>
<path d="M1966 184 c-9 -8 -16 -22 -16 -29 0 -7 7 -21 16 -29 30 -30 74 -13 74 29 0 42 -44 59 -74 29z"/>
<path d="M2108 175 c-21 -46 40 -86 76 -49 9 8 16 22 16 29 0 45 -73 61 -92 20z"/>
<path d="M2273 193 c-7 -2 -13 -18 -13 -34 0 -55 80 -66 88 -12 6 37 -36 62 -75 46z"/>
<path d="M2420 185 c-31 -38 27 -96 65 -65 18 15 20 51 3 68 -17 17 -53 15 -68 -3z"/>
<path d="M2576 184 c-9 -8 -16 -22 -16 -29 0 -20 28 -45 50 -45 22 0 50 25 50 45 0 20 -28 45 -50 45 -10 0 -26 -7 -34 -16z"/>
<path d="M2732 188 c-27 -27 -7 -78 29 -78 21 0 49 26 49 45 0 35 -53 58 -78 33z"/>
<path d="M46 61 c-12 -13 -15 -27 -11 -41 5 -17 13 -21 43 -18 30 2 38 7 40 26 7 48 -40 69 -72 33z"/>
<path d="M212 73 c-18 -7 -33 -39 -26 -57 9 -24 71 -21 84 3 13 25 13 27 -6 45 -16 16 -29 19 -52 9z"/>
<path d="M356 67 c-11 -8 -17 -23 -14 -38 2 -19 10 -25 37 -27 48 -5 68 30 35 62 -19 19 -35 20 -58 3z"/>
<path d="M505 64 c-9 -9 -15 -26 -13 -38 2 -17 10 -21 43 -21 35 0 40 3 43 24 3 15 -3 30 -14 38 -24 17 -39 16 -59 -3z"/>
<path d="M656 61 c-28 -30 -13 -61 29 -61 46 0 64 31 35 60 -25 25 -42 25 -64 1z"/>
<path d="M810 66 c-6 -8 -10 -25 -8 -38 2 -19 10 -24 40 -26 30 -3 38 1 43 18 13 42 -47 79 -75 46z"/>
<path d="M965 64 c-9 -9 -15 -26 -13 -38 2 -17 10 -21 43 -21 35 0 40 3 43 24 3 15 -3 30 -14 38 -24 17 -39 16 -59 -3z"/>
<path d="M1115 56 c-23 -35 -10 -56 35 -56 45 0 58 21 35 56 -20 31 -50 31 -70 0z"/>
<path d="M1276 67 c-11 -8 -17 -23 -14 -38 3 -21 8 -24 43 -24 33 0 41 4 43 21 3 23 -21 54 -42 54 -7 0 -20 -6 -30 -13z"/>
<path d="M1426 61 c-29 -32 -13 -61 35 -61 36 0 39 2 39 28 0 51 -42 69 -74 33z"/>
<path d="M1586 67 c-11 -8 -17 -23 -14 -38 2 -19 10 -25 37 -27 48 -5 68 30 35 62 -19 19 -35 20 -58 3z"/>
<path d="M1736 64 c-33 -32 -13 -67 35 -62 27 2 35 8 37 27 3 15 -3 30 -14 38 -23 17 -39 16 -58 -3z"/>
<path d="M1892 68 c-7 -7 -12 -25 -12 -40 0 -26 3 -28 39 -28 31 0 41 4 46 21 13 40 -44 76 -73 47z"/>
<path d="M2040 66 c-6 -8 -10 -25 -8 -38 3 -20 9 -23 43 -23 33 0 41 4 43 21 6 42 -51 71 -78 40z"/>
<path d="M2190 65 c-7 -9 -10 -25 -6 -40 6 -23 11 -26 44 -23 30 2 38 7 40 26 7 45 -49 72 -78 37z"/>
<path d="M2340 60 c-17 -32 4 -60 44 -60 41 0 53 23 31 56 -19 30 -60 32 -75 4z"/>
<path d="M2500 66 c-6 -8 -10 -25 -8 -38 3 -20 9 -23 43 -23 33 0 41 4 43 21 6 42 -51 71 -78 40z"/>
<path d="M2648 56 c-17 -39 -4 -58 39 -54 31 2 39 7 41 26 7 51 -58 74 -80 28z"/>
<path d="M2805 56 c-17 -25 -11 -56 11 -56 10 0 14 12 14 40 0 46 -4 49 -25 16z"/>
</g>


</svg>