<!DOCTYPE svg PUBLIC "-//W3C//DTD SVG 20010904//EN" "http://www.w3.org/TR/2001/REC-SVG-20010904/DTD/svg10.dtd">
<svg version="1.0" xmlns="http://www.w3.org/2000/svg" width="157px" height="157px" viewBox="0 0 1570 1570" preserveAspectRatio="xMidYMid meet">
<g id="layer101" fill="#57514b" stroke="none">
 <path d="M0 785 l0 -785 785 0 785 0 0 785 0 785 -785 0 -785 0 0 -785z"/>
 </g>
<g id="layer102" fill="#fcfcfc" stroke="none">
 <path d="M0 785 l0 -785 785 0 785 0 0 785 0 785 -785 0 -785 0 0 -785z m990 684 c188 -44 342 -154 411 -294 31 -64 34 -77 34 -160 0 -81 -3 -96 -33 -157 -61 -124 -205 -237 -364 -283 l-57 -16 11 -30 c17 -49 5 -186 -22 -249 -45 -106 -132 -200 -184 -200 -14 0 -6 9 25 28 76 50 77 52 89 217 5 83 10 165 10 183 l0 33 -67 -3 -68 -3 -6 -218 c-4 -146 -10 -222 -18 -230 -33 -33 -139 79 -182 192 -18 48 -20 73 -17 170 l3 114 -52 18 c-155 52 -280 155 -341 277 -34 69 -37 84 -37 157 0 73 4 88 37 157 126 254 475 379 828 297z"/>
 <path d="M662 1469 c-196 -25 -387 -136 -465 -269 -38 -65 -60 -160 -52 -223 17 -137 122 -266 277 -341 123 -58 213 -78 363 -78 552 1 835 475 460 770 -93 73 -225 124 -370 142 -89 11 -122 11 -213 -1z m-139 -214 c73 1 88 -9 30 -19 -46 -7 -203 13 -203 27 0 6 19 6 53 1 28 -5 82 -9 120 -9z m224 -37 c21 -20 24 -20 41 -5 19 17 52 23 52 10 0 -5 -15 -15 -33 -23 -36 -17 -48 -58 -23 -80 9 -7 16 -20 16 -28 0 -15 -2 -15 -17 0 -15 16 -17 16 -28 1 -7 -9 -17 -13 -24 -9 -9 6 -8 12 4 26 28 31 26 68 -6 95 -16 13 -29 26 -29 29 0 13 25 5 47 -16z m536 5 c23 -14 -15 -19 -88 -12 -44 4 -110 8 -147 8 -44 1 -68 5 -68 12 0 9 39 10 147 5 81 -4 151 -10 156 -13z m-731 -33 c21 0 38 -4 38 -10 0 -6 -40 -10 -99 -10 -117 0 -191 9 -191 23 0 7 37 8 107 4 58 -4 123 -7 145 -7z m648 -16 c91 -9 167 -18 169 -20 13 -12 -16 -13 -110 -5 -57 5 -152 13 -211 16 -60 4 -106 11 -102 16 8 13 68 11 254 -7z m48 -56 c67 -6 122 -15 122 -20 0 -10 -6 -10 -195 7 -88 8 -170 15 -182 15 -13 0 -23 5 -23 11 0 12 29 10 278 -13z m-658 3 c0 -7 -56 -11 -171 -11 -93 0 -168 4 -165 8 8 13 336 16 336 3z m15 -57 c0 -10 -8 -20 -17 -22 -18 -3 -26 27 -11 42 12 11 28 0 28 -20z m365 -15 c0 -20 -24 -26 -35 -9 -8 13 14 42 26 34 5 -3 9 -14 9 -25z"/>
 <path d="M574 515 c-12 -66 1 -206 23 -255 l21 -45 1 91 c1 50 4 125 7 167 l7 77 -26 0 c-22 0 -27 -6 -33 -35z"/>
 <path d="M926 453 c-4 -54 -9 -132 -11 -173 -5 -70 -4 -73 9 -50 63 105 80 320 26 320 -16 0 -19 -12 -24 -97z"/>
 <path d="M647 458 c-4 -46 -7 -127 -7 -182 l0 -98 39 -39 c70 -71 71 -68 71 181 l0 220 -49 0 -48 0 -6 -82z"/>
 </g>

</svg>