<!DOCTYPE svg PUBLIC "-//W3C//DTD SVG 20010904//EN" "http://www.w3.org/TR/2001/REC-SVG-20010904/DTD/svg10.dtd">
<svg version="1.0" xmlns="http://www.w3.org/2000/svg" width="207px" height="49px" viewBox="0 0 2070 490" preserveAspectRatio="xMidYMid meet">
<g id="layer101" fill="#606775" stroke="none">
 <path d="M721 433 c-20 -13 -29 -14 -56 -5 -17 7 -50 12 -72 12 -34 0 -46 -6 -67 -31 -28 -33 -33 -70 -16 -130 12 -42 71 -114 111 -134 31 -17 116 -20 139 -5 21 13 16 114 -9 177 l-20 50 26 26 c43 43 14 76 -36 40z m-75 -54 c3 -5 -2 -19 -10 -31 -36 -50 -5 -79 40 -37 l22 21 10 -34 c6 -18 13 -49 16 -69 6 -34 5 -37 -25 -43 -37 -7 -57 2 -97 48 -69 79 -56 176 21 158 9 -3 20 -8 23 -13z"/>
 <path d="M903 422 c-7 -4 -16 -50 -22 -107 -11 -117 -9 -120 74 -130 91 -12 140 21 100 65 -15 16 -14 18 10 24 39 10 34 56 -11 96 -49 43 -125 69 -151 52z m96 -73 c57 -25 44 -45 -23 -35 -40 6 -46 10 -46 32 0 29 11 30 69 3z m1 -105 c12 -12 12 -14 -5 -14 -37 0 -65 12 -65 27 0 18 47 10 70 -13z"/>
 <path d="M1152 422 c-19 -13 -29 -190 -13 -220 6 -12 18 -22 26 -22 12 0 15 18 15 95 0 94 0 95 24 95 14 0 37 -5 52 -10 34 -13 64 -4 64 19 0 12 -12 22 -37 29 -59 17 -117 24 -131 14z"/>
 <path d="M1400 408 c-76 -39 -79 -92 -10 -170 58 -66 114 -75 138 -22 17 35 15 130 -3 163 -11 22 -57 51 -79 51 -1 0 -22 -10 -46 -22z m92 -107 c-1 -69 -23 -80 -67 -33 -33 35 -31 81 5 99 36 18 63 -11 62 -66z"/>
 <path d="M1630 423 c-50 -20 -66 -83 -36 -141 18 -35 72 -85 113 -106 30 -15 33 -15 42 3 6 10 12 34 13 53 3 27 -1 34 -19 36 -13 2 -23 -3 -25 -12 -2 -13 -9 -11 -36 10 -37 29 -66 79 -58 100 7 19 69 18 106 -1 41 -21 38 -26 -15 -18 -43 5 -45 5 -45 -19 0 -22 5 -26 46 -32 68 -9 112 -7 119 4 15 24 -8 71 -45 96 -38 25 -128 41 -160 27z"/>
 <path d="M320 394 c-6 -14 -10 -47 -10 -73 0 -46 -1 -48 -25 -43 -18 3 -25 0 -25 -11 0 -25 29 -47 61 -47 30 0 35 9 42 75 2 27 5 24 36 -40 18 -38 43 -101 56 -140 l22 -70 149 -8 c165 -9 194 -5 194 22 0 24 -41 31 -191 31 l-115 0 -23 80 c-55 190 -141 303 -171 224z"/>
 </g>

</svg>